<?xml version="1.0" encoding="utf-8"?>
<!-- Generator: Adobe Illustrator 24.3.0, SVG Export Plug-In . SVG Version: 6.00 Build 0)  -->
<svg version="1.1" id="Layer_1" xmlns="http://www.w3.org/2000/svg" xmlns:xlink="http://www.w3.org/1999/xlink" x="0px" y="0px"
	 viewBox="0 0 91.9 97.6" style="enable-background:new 0 0 91.9 97.6;" xml:space="preserve">
<style type="text/css">
	.st0{fill:#0488A6;}
	.st1{font-family:'AesthetNova-Bold';}
	.st2{font-size:20.56px;}
</style>
<g id="Layer_2_2_">
	<g id="Paws_1_">
		<g id="paths_1_">
			<path class="st0" d="M27.6,29c0,0.2,0,0.4-0.1,0.6c0,0.1,0,0.1,0,0.2c0,0.2-0.1,0.4-0.2,0.6c0,0.3,0,0.5,0,0.8
				c0,0.1-0.1,0.3-0.1,0.4v0.1c-0.1,0.6-0.5,1.2-1,1.5c-0.2,0.2-0.5,0.4-0.7,0.5c-0.1,0.9-0.6,1.6-1.4,2c-0.1,0.1-0.2,0.1-0.4,0.2
				c0,0.2-0.1,0.5-0.2,0.7c0,0.2,0,0.3,0,0.5c0,1-0.6,1.9-1.5,2.2c-0.2,0.1-0.5,0.2-0.8,0.2c-0.2,0.4-0.6,0.8-1,1
				c-0.3,0.1-0.6,0.2-0.8,0.3c-0.1,0-0.3,0-0.4,0c-0.2,0-0.4,0-0.6,0c-0.1,0-0.3,0-0.4,0s-0.2,0-0.3-0.1c-0.2,0-0.4,0-0.5-0.1l0,0
				c-0.1,0-0.2-0.1-0.3-0.1l-0.2-0.1l-0.3-0.1c-0.3-0.1-0.5-0.2-0.7-0.4c-0.4-0.2-0.7-0.5-0.9-0.8c-0.1-0.2-0.2-0.5-0.2-0.8
				c0-0.1-0.1-0.2-0.1-0.2l-0.2-0.2c-0.9-0.8-1.8-1.8-1.8-3.1c-0.1-0.2-0.1-0.5-0.1-0.8c0-0.2,0-0.3,0-0.5c0-0.1,0-0.3,0-0.4
				c0-0.3,0-0.5,0-0.8c0-0.2,0-0.4,0-0.5s0-0.1,0-0.2c0-0.2,0-0.5,0-0.7c0-0.1,0-0.1,0-0.2c0-0.2,0-0.3,0-0.5V30
				c0.1-0.7,0.6-1.3,1.3-1.7c0.3-0.1,0.6-0.2,0.9-0.2c0.2-0.2,0.5-0.4,0.8-0.5c0.3-0.2,0.7-0.3,1-0.3c0.1-0.3,0.2-0.6,0.3-0.8
				c-0.7-0.5-1.1-1.3-1.1-2.2l0,0c0.1-1,0.6-1.8,1.5-2.2c0.4-0.2,0.8-0.3,1.2-0.2l0.2-0.1l0.3-0.1c0.2-0.3,0.5-0.6,0.9-0.8
				c0.4-0.2,0.9-0.3,1.4-0.2c0.4-0.1,0.9-0.1,1.3,0c0.3,0,0.5,0,0.8,0.1c0.1,0,0.2,0.1,0.3,0.1l0.3,0.1c0.2,0.1,0.4,0.2,0.6,0.3h0.1
				c0.3,0.1,0.5,0.3,0.8,0.5s0.5,0.4,0.7,0.7c0.1,0.1,0.2,0.3,0.2,0.5c0.1,0.1,0.1,0.2,0.2,0.4c0.8,0.6,1.4,1.5,1.5,2.5
				c0,0.3,0,0.5,0,0.8c0.1,0.3,0.1,0.7,0.1,1v0.1c0,0.2,0,0.5,0,0.7v0.2C27.5,28.7,27.5,28.8,27.6,29z"/>
			<path class="st0" d="M42.1,9.9c0,0.2-0.1,0.5-0.1,0.7v0.1c0,0.3-0.1,0.5-0.2,0.7c0,0.2,0,0.4,0,0.6c0,0.2-0.1,0.4-0.2,0.6
				c-0.2,0.7-0.6,1.3-1.2,1.6l-0.1,0.1c-0.1,0.1-0.2,0.1-0.3,0.2c-0.1,0.1-0.2,0.1-0.3,0.1c-0.3,0.6-0.7,1.1-1.4,1.4
				c-0.2,0.1-0.5,0.2-0.8,0.2c0,0.1-0.1,0.2-0.1,0.2c0,0.1,0,0.1,0,0.2c0,1-0.5,1.9-1.5,2.4c-0.3,0.2-0.7,0.3-1,0.3
				c-0.2,0.3-0.5,0.5-0.8,0.6c-0.4,0.2-0.8,0.3-1.2,0.2c-0.1,0-0.2,0-0.2,0c-0.1,0-0.3,0-0.4,0c-0.2,0-0.4,0-0.6-0.1l-0.4-0.1
				l-0.2-0.1H31c-0.1,0-0.2-0.1-0.3-0.1l-0.2-0.1l-0.1-0.1l-0.3-0.1c-0.1,0-0.2-0.1-0.3-0.1c-0.2-0.1-0.4-0.2-0.6-0.4
				c-0.4-0.2-0.7-0.5-0.9-0.9c-0.1-0.2-0.2-0.5-0.2-0.7L28,17.2c-0.8-0.7-1.8-1.5-1.6-2.9l0,0c-0.1-0.2-0.1-0.5-0.1-0.8
				c0-0.1,0-0.3,0-0.4c0-0.1,0-0.2,0-0.3c0-0.2,0-0.5,0-0.7V12c0-0.1,0-0.3,0-0.4c0-0.1,0-0.1,0-0.2v-0.1c0-0.1,0-0.3,0-0.4
				s0.1-0.2,0.1-0.3s0-0.2,0-0.3s0-0.1,0-0.2V10V9.9c0.1-0.7,0.6-1.4,1.3-1.7c0.6-0.3,1.3-0.4,1.9-0.1L29.8,8
				c0.4-0.2,0.8-0.3,1.2-0.3c0.1-0.2,0.1-0.4,0.2-0.5c-0.7-0.5-1.1-1.3-1.1-2.2c0-1,0.6-1.8,1.5-2.2c0.4-0.2,0.8-0.3,1.3-0.2L33,2.5
				c0.1-0.1,0.3-0.1,0.4-0.2c0.2-0.3,0.5-0.5,0.8-0.7c0.4-0.2,1-0.3,1.5-0.2c0.4-0.1,0.9-0.1,1.3,0.1l0,0c0.3,0,0.5,0,0.8,0.1
				L38,1.7l0.3,0.1c0.2,0.1,0.4,0.1,0.5,0.2h0.1c0.3,0.1,0.6,0.2,0.8,0.4c0.4,0.2,0.7,0.5,0.8,0.8c0.1,0.2,0.2,0.4,0.2,0.7
				c1,0.5,1.5,1.6,1.5,2.7c0.1,0.3,0.1,0.6,0,0.9l0,0c0.1,0.3,0.1,0.7,0,1c0,0.1,0,0.1,0,0.2c0,0.2,0,0.4,0,0.6v0.1
				C42,9.6,42.1,9.7,42.1,9.9z"/>
			<path class="st0" d="M62.8,7.8c0,0.2,0,0.4-0.1,0.6c0,0.1,0,0.3,0,0.4c0,0.1-0.1,0.3-0.1,0.4c0.1,0.3,0.1,0.6,0,0.9
				c0,0.1,0,0.2-0.1,0.3v0.3c-0.1,0.5-0.3,0.9-0.7,1.3c-0.2,0.3-0.5,0.6-0.9,0.8v0.1c-0.1,0.9-0.7,1.6-1.4,2
				C59.4,15,59.3,15,59.2,15c0,0.3-0.1,0.5-0.2,0.8c0,0.1,0,0.3,0,0.4c0,1-0.6,1.9-1.5,2.3c-0.2,0.1-0.4,0.2-0.5,0.2
				c-0.2,0.4-0.6,0.8-1,1c-0.2,0.1-0.4,0.2-0.6,0.2c-0.1,0-0.3,0.1-0.4,0.1c-0.1,0-0.2,0-0.3,0c-0.2,0-0.4,0-0.7,0h-0.2
				c-0.1,0-0.3,0-0.4-0.1c-0.2,0-0.4,0-0.5-0.1c-0.2,0-0.3-0.1-0.5-0.1h-0.1h-0.1h-0.1l0,0c-0.2-0.1-0.5-0.2-0.7-0.4
				c-0.7-0.3-1.2-0.9-1.2-1.7l-0.1-0.1c-0.8-0.7-1.8-1.6-1.6-2.9c-0.1-0.3-0.1-0.5-0.1-0.8c0-0.2,0-0.3,0-0.5c0-0.1,0-0.3,0-0.4
				c0-0.3,0-0.5,0-0.8c0-0.2,0-0.4,0-0.6c0-0.1,0-0.1,0-0.2c0-0.2,0-0.5,0-0.7v-0.1c0-0.2,0-0.3,0-0.5c0-0.1,0-0.1,0-0.2
				c0-0.1,0-0.2,0-0.4c0-0.4,0.5-1.1,1.1-1.4c0.3-0.2,0.7-0.3,1-0.2c0.2-0.1,0.3-0.2,0.5-0.3c0.2-0.1,0.5-0.2,0.8-0.2l0,0
				c0-0.4,0.2-0.8,0.4-1.1C51.5,5.7,51,4.9,51.1,4c0-1,0.6-1.8,1.5-2.2c0.3-0.2,0.7-0.2,1-0.2c0.1-0.1,0.2-0.1,0.3-0.2
				c0.1,0,0.1-0.1,0.2-0.1C54.3,1,54.6,0.7,55,0.5s0.9-0.3,1.4-0.2c0.5-0.1,1-0.1,1.4,0.1L58,0.5c0.2,0,0.4,0,0.6,0.1
				c0.2,0.1,0.4,0.1,0.5,0.2h0.2c0.3,0.1,0.5,0.2,0.8,0.4c0.2,0.2,0.4,0.4,0.6,0.7c0.1,0.1,0.1,0.2,0.1,0.3c0.1,0.2,0.2,0.5,0.3,0.7
				c0.8,0.6,1.3,1.4,1.5,2.3c0.1,0.3,0.1,0.6,0,0.9V6c0.1,0.3,0.1,0.6,0.1,0.9V7C62.7,7.3,62.8,7.5,62.8,7.8z"/>
			<path class="st0" d="M79.3,26.9c0,0.2-0.1,0.5-0.1,0.7v0.1c0,0.2-0.1,0.5-0.2,0.7c0,0.2,0,0.5,0,0.7s-0.1,0.4-0.2,0.5
				c-0.2,0.7-0.6,1.3-1.3,1.7l0,0c-0.1,0.1-0.2,0.2-0.4,0.2l-0.3,0.1c-0.2,0.6-0.7,1.2-1.3,1.5c-0.2,0.1-0.5,0.2-0.8,0.2
				c0,0.1-0.1,0.2-0.1,0.2v0.1c0.1,1-0.6,2-1.5,2.4l-0.3,0.1c-0.2,0.3-0.5,0.5-0.8,0.7s-0.7,0.3-1,0.3c-0.2,0.1-0.4,0.1-0.6,0.1
				c-0.1,0-0.3,0-0.4,0s-0.2,0-0.3,0c-0.2,0-0.4,0-0.6,0c-0.1,0-0.2,0-0.3,0c-0.3-0.1-0.5-0.1-0.8-0.2l-0.2-0.1l-0.2-0.1h-0.1l0,0
				c-0.1-0.1-0.2-0.1-0.4-0.2c-0.2-0.1-0.4-0.2-0.6-0.3c-0.4-0.2-0.8-0.5-1-0.9c-0.1-0.2-0.2-0.4-0.2-0.6c-0.9-0.6-1.5-1.6-1.5-2.6
				l0,0c-0.1-0.2-0.1-0.5-0.1-0.7s0-0.3,0-0.5c0-0.1,0-0.2,0-0.3c0-0.2,0-0.5,0-0.7c0,0,0,0,0-0.1s0-0.3,0-0.4v-0.3l0,0
				c0-0.2,0-0.3,0-0.5c0-0.1,0-0.2,0.1-0.2c0-0.1,0-0.3,0-0.4V28v-0.1c0-0.1,0-0.2,0-0.3c0-0.2,0.1-0.4,0.2-0.5c0-0.1,0-0.2,0-0.4
				c0.2-0.8,0.7-1.5,1.5-1.8c0.5-0.3,1.1-0.3,1.7-0.1c0.3,0.1,0.5,0.2,0.7,0.4l0,0c0.1-0.3,0.2-0.6,0.3-0.9
				c-0.7-0.5-1.1-1.3-1.1-2.2c0-1,0.6-1.8,1.5-2.2c0.4-0.2,0.8-0.3,1.2-0.2l0.2-0.1c0.1-0.1,0.2-0.1,0.4-0.2
				c0.2-0.3,0.5-0.5,0.8-0.7c0.5-0.3,1-0.3,1.6-0.2c0.4-0.1,0.8-0.1,1.2,0.1l0.2,0.1c0.2,0,0.4,0,0.6,0.1s0.4,0.1,0.5,0.2h0.1
				c0.3,0.1,0.6,0.2,0.8,0.4l0,0c0.9,0.4,1.3,1.1,1.8,2.2c0.7,0.6,1.2,1.4,1.3,2.3c0,0.1,0,0.2,0,0.3c0.1,0.4,0.1,0.7,0.1,1.1v0.1
				c0,0.2,0,0.5,0,0.7v0.1C79.3,26.6,79.3,26.8,79.3,26.9z"/>
			<path class="st0" d="M68.9,55.8c0,0.2,0,0.3,0,0.5c-0.2,0.9-0.7,1.7-1.5,2.1h-0.1v0.1c0.4,0.8,0.5,1.8,0.4,2.7
				c-0.2,1-0.8,1.8-1.6,2.2c-0.2,0.1-0.3,0.1-0.5,0.2c-0.3,0.4-0.6,0.7-1.1,0.9c-0.6,0.4-1.4,0.4-2.1,0.2c-0.2,0.1-0.4,0.1-0.5,0.1
				c-0.3,0.6-0.8,1.1-1.4,1.4c-0.7,0.4-1.5,0.5-2.3,0.2L58,66.3l-0.2,0.1c-0.7,0.4-1.5,0.4-2.3,0.2c-0.4,0.1-0.7,0.1-1.1,0
				c-0.5,0.1-1.1,0.1-1.6-0.1c-0.9-0.4-1.7-1.1-2.2-2c-0.9-0.5-1.6-1.2-2.1-2.2c-0.8,0.4-1.7,0.3-2.4-0.1c-0.2,0-0.4-0.1-0.6-0.1
				L45.3,62c-0.2,0-0.4,0-0.6-0.1c-0.2,0.4-0.5,0.7-0.8,1c-0.2,0.3-0.4,0.6-0.7,0.8c-0.2,0.7-0.7,1.4-1.3,1.7
				c-0.4,0.2-0.8,0.3-1.2,0.3c-0.1,0-0.3,0-0.5,0c-0.2,0.3-0.5,0.5-0.8,0.6c-0.4,0.2-0.8,0.3-1.2,0.3c-0.1,0.9-0.7,1.7-1.5,2.1
				c-0.6,0.3-1.3,0.4-1.9,0.1h-0.3c-0.3,0-0.6,0-0.9-0.1c-0.1,0-0.3-0.1-0.4-0.2c-0.2,0.2-0.4,0.3-0.6,0.5c-0.7,0.3-1.4,0.3-2.1,0
				c-0.1,0-0.2-0.1-0.4-0.2c-0.2-0.1-0.4-0.2-0.6-0.4c-0.3-0.2-0.6-0.5-0.8-0.8c-0.1-0.2-0.2-0.5-0.2-0.7c-0.1-0.2-0.3-0.5-0.4-0.8
				l-0.2-0.3c-1-1.1-2-2.1-2-3.4c-0.2-0.3-0.3-0.6-0.3-1c-0.1-0.2-0.1-0.5-0.2-0.7c-0.1-0.4-0.1-0.7,0-1.1c0.1-0.6,0.4-1.1,0.8-1.4
				c0-0.1,0-0.1,0-0.2c0-0.4,0.2-0.8,0.4-1.2c-0.5-0.6-0.7-1.5-0.7-2.2c0.1-0.9,0.7-1.7,1.5-2.1c0.1-0.1,0.3-0.1,0.5-0.2
				c0-0.3,0-0.5,0-0.8c0-0.1,0.1-0.3,0.1-0.4c-0.7-0.8-1-1.9-0.9-3c0.1-0.9,0.7-1.7,1.5-2.1c0.3-0.1,0.5-0.2,0.8-0.3
				c0.1-0.1,0.3-0.2,0.4-0.3c0.3-0.2,0.6-0.2,0.9-0.3c0.2-0.3,0.5-0.5,0.8-0.7c0.1-0.1,0.3-0.1,0.5-0.2c0-0.2,0.1-0.3,0.2-0.5v-0.1
				c-0.1-0.2-0.1-0.5-0.2-0.8c-0.3-0.7-0.4-1.4-0.3-2.1c0.1-0.5,0.3-1.1,0.7-1.5c0.2-0.6,0.7-1,1.2-1.3c0.2-0.1,0.4-0.2,0.6-0.2
				c0-0.1,0-0.2,0-0.3c0.1-0.4,0.2-0.7,0.4-1c0-0.2,0-0.5,0.1-0.8c0.2-0.9,0.8-1.7,1.6-2.1c0.1-0.1,0.2-0.1,0.3-0.2
				c0.2-0.3,0.6-0.6,0.9-0.8c0.3-0.5,0.7-0.9,1.2-1.1c0.7-0.4,1.6-0.4,2.3-0.2c0.2-0.2,0.4-0.4,0.6-0.5c0.2-0.9,0.8-1.7,1.6-2.2
				c0.7-0.4,1.6-0.5,2.4-0.2c0.2,0.1,0.4,0.2,0.6,0.3c0.4,0,0.8,0,1.1,0.2c0.3,0.1,0.5,0.2,0.8,0.4c0.6-0.2,1.2-0.1,1.8,0.1
				c1.1,0.5,2,1.4,2.6,2.5c0.8,0.5,1.4,1.1,1.9,1.9h0.1c0.6-0.3,1.3-0.4,2-0.1c1,0.4,1.8,1.3,2.8,3.3c0.7-0.2,1.4,0,1.9,0.6
				c0.2,0.1,0.4,0.3,0.5,0.5c0.5,0.3,0.9,0.8,1,1.5c0,0.2,0,0.3,0,0.5c-0.1,0.1,0,0.2,0,0.4c0,0.8-0.5,1.5-1.1,1.8
				c1.9,2.1,3.2,3.7,3.5,5.2c1.5,2,2.3,3.6,2.3,4.9C68.4,53.4,68.8,54.6,68.9,55.8z"/>
		</g>
	</g>
</g>
<text transform="matrix(1 0 0 1 21.0282 94.9811)" class="st0 st1 st2">Menu</text>
</svg>
