<svg xmlns="http://www.w3.org/2000/svg" viewBox="0 0 65.65 72.38"><defs><style>.cls-1{fill:#1e4553;}</style></defs><g id="Layer_2" data-name="Layer 2"><g id="Paws"><g id="paths"><path class="cls-1" d="M15.18,34.87a1.84,1.84,0,0,1,0,.41s0,.08,0,.11a2.36,2.36,0,0,1,0,.53,2.45,2.45,0,0,1-.28.84,2.66,2.66,0,0,1-1,1.28,2.9,2.9,0,0,1,0,.51,2.6,2.6,0,0,1-1.37,2.05,1.34,1.34,0,0,1-.27.13,2.34,2.34,0,0,1-.18.89,2.27,2.27,0,0,1,.06.59,2.59,2.59,0,0,1-1.43,2.23,2.2,2.2,0,0,1-1.39.29l-.2.07a2.28,2.28,0,0,1-.84.79,2.18,2.18,0,0,1-1.58.25A2.61,2.61,0,0,1,6,45.73l-.16-.06-.23-.1a2.16,2.16,0,0,1-.49-.11,2.27,2.27,0,0,1-.39-.16l-.29-.15a2.5,2.5,0,0,1-.67-.46A2,2,0,0,1,3,43.92a1.82,1.82,0,0,1-.25-.73q-.13-.24-.27-.51c-.08-.08-.17-.15-.23-.22-1-.93-2-1.9-2-3.23a2.67,2.67,0,0,1-.16-.72,3.68,3.68,0,0,1-.07-.58,3.2,3.2,0,0,1,0-.69.51.51,0,0,0,0-.13A3.25,3.25,0,0,1,0,36.23,1.49,1.49,0,0,1,0,36a2.34,2.34,0,0,1,0-.7,2.5,2.5,0,0,1,1.22-1.77,2.25,2.25,0,0,1,.45-.19A2.73,2.73,0,0,1,3,31.88a2.23,2.23,0,0,1,1-.3A2.61,2.61,0,0,1,4.26,31a2.86,2.86,0,0,1-1.11-2.25,2.59,2.59,0,0,1,1.42-2.21,2.15,2.15,0,0,1,1.49-.24A2.37,2.37,0,0,1,6.93,26a2.24,2.24,0,0,1,.43-.31A2.1,2.1,0,0,1,9,25.5l.32.11a2.17,2.17,0,0,1,.75.11.92.92,0,0,1,.23.09,1.66,1.66,0,0,1,.31.12,2.53,2.53,0,0,1,.77.47,2,2,0,0,1,1,.85,2,2,0,0,1,.26.9l.08.13.28.26c.93.84,1.92,1.69,1.82,3a2.59,2.59,0,0,1,.22.95,2.76,2.76,0,0,1,.06.57,2.43,2.43,0,0,1,0,.66A2.56,2.56,0,0,1,15,34,2.93,2.93,0,0,1,15.18,34.87Z"/><path class="cls-1" d="M27.07,12.74a2.26,2.26,0,0,1-.08.6l0,.25a2.39,2.39,0,0,1-.37,1,2.69,2.69,0,0,1,0,.94,2.47,2.47,0,0,1-1.23,1.79l0,0a2.7,2.7,0,0,1-.39.27l-.29.14a2.64,2.64,0,0,1-1.25,1.49,2.1,2.1,0,0,1-.83.28,1.19,1.19,0,0,1-.08.16,1.17,1.17,0,0,1,0,.32,2.55,2.55,0,0,1-1.42,2.25,2.26,2.26,0,0,1-1.34.29,2.9,2.9,0,0,1-.68.57,2.23,2.23,0,0,1-1.31.28,2.2,2.2,0,0,1-.36,0,2.5,2.5,0,0,1-.66-.09l-.22,0a1.53,1.53,0,0,1-.29-.07l-.18-.06L15.81,23l-.31-.13-.11,0-.3-.12a2.42,2.42,0,0,1-.36-.18,2.38,2.38,0,0,1-.6-.39,2,2,0,0,1-.88-.81,2.08,2.08,0,0,1-.26-.81l-.17-.14c-.82-.71-1.84-1.6-1.75-2.92a2.41,2.41,0,0,1-.13-.71,3.27,3.27,0,0,1,0-.54c0-.1,0-.21,0-.31a2.68,2.68,0,0,1,0-.8h0a3.13,3.13,0,0,1,0-.53c0-.05,0-.11,0-.17a2.51,2.51,0,0,1,0-.61,1.6,1.6,0,0,1,.05-.21,2.53,2.53,0,0,1,0-.47v0c0-.05,0-.1,0-.16a2.48,2.48,0,0,1,1.21-1.74,2.23,2.23,0,0,1,1-.27,3.11,3.11,0,0,1,.7-.52,2.34,2.34,0,0,1,1-.3,2.8,2.8,0,0,1,.21-.72A3,3,0,0,1,13.93,7a2.62,2.62,0,0,1,1.41-2.19,2.17,2.17,0,0,1,1.32-.27l.07-.05a2.28,2.28,0,0,1,1.84-.18l.08,0A2.46,2.46,0,0,1,19.16,4,2.22,2.22,0,0,1,21,3.79a2.66,2.66,0,0,1,.61.3l.32.07a2.46,2.46,0,0,1,.85.47,2.32,2.32,0,0,1,1,.64,2,2,0,0,1,.54.61,1.87,1.87,0,0,1,.2.49c.15.27.3.57.47.9l.05.05c.91.85,1.85,1.72,1.89,2.92a2.68,2.68,0,0,1,.09,1.06.11.11,0,0,0,0,0,2.68,2.68,0,0,1,.07.8,1.67,1.67,0,0,1,.07.41A1,1,0,0,1,27.07,12.74Z"/><path class="cls-1" d="M46.76,7.74a1.77,1.77,0,0,1-.07.5,1.82,1.82,0,0,1,0,.32,3,3,0,0,1-.1.43,2.93,2.93,0,0,1,.14,1.4l0,.15a2.53,2.53,0,0,1,0,.47,2.5,2.5,0,0,1-.41,1,2.73,2.73,0,0,1-1,1.13c0,.06,0,.12,0,.17a2.63,2.63,0,0,1-1.37,2.06,1.91,1.91,0,0,1-.6.23,2.54,2.54,0,0,1-.17.45,1,1,0,0,1,0,.3,2.55,2.55,0,0,1-1.42,2.25,2.28,2.28,0,0,1-1.51.26,2.4,2.4,0,0,1-.59.46,2.15,2.15,0,0,1-1.4.28,2.36,2.36,0,0,1-.45-.08,2.63,2.63,0,0,1-.56-.1l-.06,0a1.3,1.3,0,0,1-.34-.08l-.08,0a2,2,0,0,1-.31-.12l-.14,0a3,3,0,0,1-.41-.17h0a2.62,2.62,0,0,1-.48-.22l-.23-.13a2.63,2.63,0,0,1-.68-.48,2,2,0,0,1-1.06-1.58l0,0-.18-.15c-.88-.76-1.88-1.64-1.77-3a2.46,2.46,0,0,1-.11-.72,2.57,2.57,0,0,1,0-.48,1.71,1.71,0,0,1,0-.32,2.81,2.81,0,0,1,0-.71v-.07a2.9,2.9,0,0,1,0-.51.88.88,0,0,1,0-.16,2.19,2.19,0,0,1,0-.51,1.63,1.63,0,0,1,.07-.3,1.84,1.84,0,0,1,0-.33.68.68,0,0,1,0-.14v0a2.47,2.47,0,0,1,1.2-1.74,2.32,2.32,0,0,1,1.25-.27,4.68,4.68,0,0,1,.52-.36,2.17,2.17,0,0,1,1.1-.3,2.27,2.27,0,0,1,.2-.57,2.75,2.75,0,0,1-1.15-2.27A2.61,2.61,0,0,1,36,1.41a2.12,2.12,0,0,1,1.3-.27l.09,0a2,2,0,0,1,.55-.22,2.38,2.38,0,0,1,.68-.58,2.15,2.15,0,0,1,1.7-.2l.14.05a2.26,2.26,0,0,1,1,.07,2.42,2.42,0,0,1,.58.29,1.81,1.81,0,0,1,.35.07,2.3,2.3,0,0,1,.87.51,1.9,1.9,0,0,1,.55.61c.05.09.09.17.13.26.19.32.38.69.58,1.11.89.79,1.77,1.62,1.8,2.8a2.23,2.23,0,0,1,.1.78,2.81,2.81,0,0,1,.17.35A2,2,0,0,1,46.76,7.74Z"/><path class="cls-1" d="M65.65,23.24a1.77,1.77,0,0,1-.07.5,2.76,2.76,0,0,1,0,.64,1.57,1.57,0,0,1-.06.28,2.76,2.76,0,0,1,.09,1.21l0,.14a2.64,2.64,0,0,1,0,.49,2.45,2.45,0,0,1-.4,1,2.66,2.66,0,0,1-1,1.14c0,.08,0,.15,0,.23a2.62,2.62,0,0,1-1.37,2.05,2.2,2.2,0,0,1-.53.22,2.68,2.68,0,0,1-.17.53c0,.12,0,.24,0,.37a2.54,2.54,0,0,1-1.42,2.25,2.2,2.2,0,0,1-1.46.27,2.6,2.6,0,0,1-.69.58,2.23,2.23,0,0,1-1.6.24,2.54,2.54,0,0,1-.67-.11h0l-.21,0-.25-.06-.26-.1L55.33,35a2.54,2.54,0,0,1-.38-.16h0a3,3,0,0,1-.36-.16,1.55,1.55,0,0,1-.36-.19,2.11,2.11,0,0,1-.63-.44,2,2,0,0,1-.82-.78,2.1,2.1,0,0,1-.26-.79.83.83,0,0,0-.07-.13l-.19-.17c-.89-.78-1.9-1.65-1.81-3a2.6,2.6,0,0,1-.12-.74,2.11,2.11,0,0,1,0-.51,1.71,1.71,0,0,1,0-.32,2.48,2.48,0,0,1,0-.77v0a2.35,2.35,0,0,1,0-.53s0-.11,0-.17a2.54,2.54,0,0,1,0-.55,2,2,0,0,1,.05-.26,2.85,2.85,0,0,1,0-.4,2.47,2.47,0,0,1,1.21-1.75,2.1,2.1,0,0,1,1-.27,3.7,3.7,0,0,1,.75-.59,2.39,2.39,0,0,1,1.1-.3,2.27,2.27,0,0,1,.2-.57,2.88,2.88,0,0,1-1.13-2.26A2.58,2.58,0,0,1,54.93,17a2.15,2.15,0,0,1,1.38-.26h0a2.36,2.36,0,0,1,.71-.27,2.57,2.57,0,0,1,.58-.45,2.13,2.13,0,0,1,1.69-.2l.13.05a2.24,2.24,0,0,1,.89.09h0l.18.05a2.17,2.17,0,0,1,.72.38,1.53,1.53,0,0,1,.29.07c1,.32,1.47,1.18,2.06,2.49a4.07,4.07,0,0,1,1.66,2.58,2.52,2.52,0,0,1,0,.62l.1.17A2,2,0,0,1,65.65,23.24Z"/><path class="cls-1" d="M58,55.2a3.87,3.87,0,0,1,0,.48,3,3,0,0,1-1.47,2.15,2,2,0,0,1-.07.26A5,5,0,0,1,57,61a3.18,3.18,0,0,1-1.58,2.27,3.2,3.2,0,0,1-1.32,1.43,2.82,2.82,0,0,1-1.84.34,2.68,2.68,0,0,1-.77.21,3.19,3.19,0,0,1-1.34,1.43,2.65,2.65,0,0,1-2.22.21,3.15,3.15,0,0,1-.47-.2l0,0a2.84,2.84,0,0,1-2.3.24,2.47,2.47,0,0,1-1.08.07,2.47,2.47,0,0,1-1.52,0,4.65,4.65,0,0,1-2.26-2,6,6,0,0,1-2.41-2.45,2.48,2.48,0,0,1-.9,0,2.42,2.42,0,0,1-.54,0,2.68,2.68,0,0,1-.62.91,2.91,2.91,0,0,1,0,.66,2.76,2.76,0,0,1-.76,1.6,2.83,2.83,0,0,1-.67,1l0,.24A2.64,2.64,0,0,1,33,68.88a2.26,2.26,0,0,1-1,.31,2,2,0,0,1-.54.1,2.93,2.93,0,0,1-.89.78,2.14,2.14,0,0,1-1.51.25,2.68,2.68,0,0,1-1.37,1.75,2.25,2.25,0,0,1-1.86.19A2.53,2.53,0,0,1,25.3,72a2.29,2.29,0,0,1-.64-.07l-.1.06a2.24,2.24,0,0,1-1.79.19l-.35-.14-.1,0-.22-.09a2.35,2.35,0,0,1-.39-.19,2.78,2.78,0,0,1-.57-.29,2.42,2.42,0,0,1-.47-.26,1.51,1.51,0,0,1-.26-.18,2.33,2.33,0,0,1-.66-.52,2,2,0,0,1-.73-.74,1.94,1.94,0,0,1-.26-.79l-.05-.09-.19-.17c-.89-.78-1.92-1.68-1.78-3h0a2.47,2.47,0,0,1-.08-.6,2.72,2.72,0,0,1,0-.57v-.24a3,3,0,0,1,0-.67s0-.07,0-.1,0-.26,0-.4a1.92,1.92,0,0,1,0-.22,2.19,2.19,0,0,1,0-.51A2.46,2.46,0,0,1,18,60.58a2.3,2.3,0,0,1,.32-.15,2.68,2.68,0,0,1,1.35-1.65,2.1,2.1,0,0,1,.3-.15,2.8,2.8,0,0,1,0-2,4.4,4.4,0,0,1-1.45-3.37,2.72,2.72,0,0,1,.72-1.56,2,2,0,0,1,0-.24A2.63,2.63,0,0,1,20.09,50a2.8,2.8,0,0,1,0-.71,2.77,2.77,0,0,1,1.36-2,2.11,2.11,0,0,1,0-.25A2.87,2.87,0,0,1,22,45.81c0-.09,0-.18,0-.27a3.4,3.4,0,0,1-.37-2,2.77,2.77,0,0,1,1.11-1.89,2.76,2.76,0,0,1,.86-.76,2.49,2.49,0,0,1,.33-.16,3.54,3.54,0,0,1,0-1,2.74,2.74,0,0,1,.24-.8,3.71,3.71,0,0,1,0-1.33,3.14,3.14,0,0,1,1.18-2A3,3,0,0,1,26,34.4a3.15,3.15,0,0,1,1.5-2A2.81,2.81,0,0,1,29.16,32,3.05,3.05,0,0,1,30.09,31a3.26,3.26,0,0,1,1.56-2.1,2.9,2.9,0,0,1,2.41-.22,3.87,3.87,0,0,1,1.2.69,3.67,3.67,0,0,1,.79.15,3.92,3.92,0,0,1,.66.31,2.83,2.83,0,0,1,1.84,0A5.48,5.48,0,0,1,41.1,32a5,5,0,0,1,1.7,1.49.41.41,0,0,0,.11-.07,2.5,2.5,0,0,1,2-.2,3.46,3.46,0,0,1,1.45,1,2.31,2.31,0,0,1,.77.13,3,3,0,0,1,1.2.77,3.35,3.35,0,0,1,.66.51,3.41,3.41,0,0,1,.61.55,4.12,4.12,0,0,1,1.9,2,1.65,1.65,0,0,1,.32.07c1.22.39,1.84,1.59,3,4.22l.12.14c1.33,1.4,2.41,2.54,2.51,3.83a2.7,2.7,0,0,1,.12,1.29,3.59,3.59,0,0,1-.12.47,3.09,3.09,0,0,1,0,.91,3,3,0,0,1-.21.74A3.71,3.71,0,0,1,57.62,52a2.6,2.6,0,0,1-.37,1A4.65,4.65,0,0,1,58,55.2Z"/></g></g></g></svg>