<svg xmlns="http://www.w3.org/2000/svg" viewBox="0 0 61.7 78.56"><defs><style>.cls-1{fill:#1e4553;}</style></defs><g id="Layer_2" data-name="Layer 2"><g id="Paws"><g id="paths"><path class="cls-1" d="M12.19,36.24a1.86,1.86,0,0,1,.1.25,2.34,2.34,0,0,1,.22.48,3.24,3.24,0,0,1,.13.33,2.88,2.88,0,0,1,.19.47v0a2.78,2.78,0,0,1,.16.4,1.73,1.73,0,0,1,.07.31,1.72,1.72,0,0,1,.07.21,1.21,1.21,0,0,1,0,.18,2.47,2.47,0,0,1,.1.29l0,.1v0a1.6,1.6,0,0,1,.05.21.06.06,0,0,1,0,0,2.13,2.13,0,0,1,.1.56c0,.05,0,.11,0,.16s.05.22.07.33a2.47,2.47,0,0,1-.38,2.07,2,2,0,0,1-.61.58,2.37,2.37,0,0,1,.2.46,2.47,2.47,0,0,1,0,1.61,2.72,2.72,0,0,1-.45,1.49,2.42,2.42,0,0,1,.21.39,2.56,2.56,0,0,1-.35,2.54l0,0A2.54,2.54,0,0,1,11.76,51a2.37,2.37,0,0,1-.25.29.18.18,0,0,1,0,.07,2.08,2.08,0,0,1-.48.5,2.16,2.16,0,0,1-.4.4,2.06,2.06,0,0,1-.52.35,2.09,2.09,0,0,1-.87.52,2.14,2.14,0,0,1-.67.27l-.28.1L8,53.59l-.17,0-.23,0a2.1,2.1,0,0,1-.43,0,2,2,0,0,1-1.36-.35A2.17,2.17,0,0,1,5.43,53a2.69,2.69,0,0,1-2.11-1.39A2,2,0,0,1,3,51a2.34,2.34,0,0,1-.43-.72.61.61,0,0,0,0-.12,2.43,2.43,0,0,1-.36-.72l0-.1a2.38,2.38,0,0,1-.39-.76,1.87,1.87,0,0,1-.08-.34,2.64,2.64,0,0,1-.41-.78l-.09-.26A2.07,2.07,0,0,1,1,46.81a2.38,2.38,0,0,1-.25-.59,1.91,1.91,0,0,1-.07-.36,1.48,1.48,0,0,1-.13-.35A1.76,1.76,0,0,1,.49,45a2.26,2.26,0,0,1-.16-.26A2.48,2.48,0,0,1,.64,42a1.24,1.24,0,0,1,.18-.22l0-.08a2.78,2.78,0,0,1-.72-1.1A2.6,2.6,0,0,1,.5,38.29a2.08,2.08,0,0,1,.67-.62,2.55,2.55,0,0,1,.27-.79l0-.08a2.51,2.51,0,0,1,.37-2.12,1.81,1.81,0,0,1,.25-.3A2.79,2.79,0,0,1,2.38,34a2.42,2.42,0,0,1,.32-.32l0,0,.11-.09a1.7,1.7,0,0,1,.38-.26,1.67,1.67,0,0,1,.4-.25,2,2,0,0,1,.41-.22,2.21,2.21,0,0,1,.55-.23l.28-.1a1.88,1.88,0,0,1,.48-.12l.31-.07.32,0,.14,0a2.35,2.35,0,0,1,.7,0h.08l.28,0a3.13,3.13,0,0,1,2.07,1,2.9,2.9,0,0,1,2.14,1.65.14.14,0,0,1,0,.06,2.17,2.17,0,0,1,.5.81A2.07,2.07,0,0,1,12.19,36.24Z"/><path class="cls-1" d="M18.43,13.48l.12.31,0,.09a2.55,2.55,0,0,1,.2.48v0c.05.09.09.18.13.27s.09.22.13.33l0,0c0,.09.07.19.11.29s.05.23.07.35a3,3,0,0,1,.18.45l0,.13.06.18a2.3,2.3,0,0,1,.09.82,2.36,2.36,0,0,1,.21.52l0,.1v0a2.29,2.29,0,0,1,.07.36,2.5,2.5,0,0,1-.43,1.83,1.48,1.48,0,0,1-.26.3,2.51,2.51,0,0,1-.09.94A2.73,2.73,0,0,1,18.71,23a3,3,0,0,1,.22.4,2.56,2.56,0,0,1-.35,2.54l-.09.11a2.38,2.38,0,0,1-.43,1.1,2,2,0,0,1-.39.42,2.13,2.13,0,0,1-.57.51,2,2,0,0,1-.53.43,2,2,0,0,1-.53.27,2.13,2.13,0,0,1-.91.43,2.24,2.24,0,0,1-.65.21h0a2,2,0,0,1-.35.09l-.08,0-.31,0-.11,0a2.12,2.12,0,0,1-.56,0,2,2,0,0,1-1.27-.36,1.53,1.53,0,0,1-.33-.29,2.61,2.61,0,0,1-2.08-1.38h0A2.56,2.56,0,0,1,9,26.94a2.69,2.69,0,0,1-.4-.73,1,1,0,0,1,0-.1,2.49,2.49,0,0,1-.34-.67c0-.05,0-.09,0-.13a2.53,2.53,0,0,1-.35-.72,1.63,1.63,0,0,1-.08-.37,2.58,2.58,0,0,1-.38-.76.06.06,0,0,0,0,0,.84.84,0,0,1,0-.17,2,2,0,0,1-.09-.48,2,2,0,0,1-.21-.5A3.1,3.1,0,0,1,7,21.85a1.43,1.43,0,0,1-.09-.27A2.21,2.21,0,0,1,6.77,21l-.09-.15A2.48,2.48,0,0,1,7,18.14a2.89,2.89,0,0,1,.29-.32,2.53,2.53,0,0,1-.54-.91,2.57,2.57,0,0,1,.36-2.34A2.22,2.22,0,0,1,7.68,14a2.46,2.46,0,0,1,.4-1.93L8.13,12l0-.06h0a2.17,2.17,0,0,1,.57-.56l.07-.11a2.05,2.05,0,0,1,.46-.47,2.08,2.08,0,0,1,.51-.37,2.33,2.33,0,0,1,.4-.27l.13-.08.2-.09.18-.08a2,2,0,0,1,.52-.22,2.07,2.07,0,0,1,.44-.15l.16,0a1.55,1.55,0,0,1,.36-.08l.11,0,.26-.05.18,0h0a2.4,2.4,0,0,1,.46,0h0a2.2,2.2,0,0,1,1,.1,3.21,3.21,0,0,1,.46.22,6,6,0,0,1,.62.45,2.72,2.72,0,0,1,1.91,1.16,2.79,2.79,0,0,1,.26.45,2.15,2.15,0,0,1,.34.57,1.8,1.8,0,0,1,.17.34,2.86,2.86,0,0,1,.32.6C18.34,13.3,18.39,13.39,18.43,13.48Z"/><path class="cls-1" d="M37.57,4.78a1.6,1.6,0,0,1,.1.23,2.52,2.52,0,0,1,.12.29,3.22,3.22,0,0,1,.25.53,3,3,0,0,1,.23.55l0,.14a2.05,2.05,0,0,1,.16.41l0,.06c.05.1.09.2.13.3l.09.27c0,.1.08.2.11.3A2.51,2.51,0,0,1,38.45,10a2.21,2.21,0,0,1-1,.77,3.1,3.1,0,0,1,1.34,1.66,2.52,2.52,0,0,1,.06,1.36,2.57,2.57,0,0,1-.37,1.72,2.37,2.37,0,0,1,.38.66,2.54,2.54,0,0,1-.28,2.41A2.52,2.52,0,0,1,38.11,20l-.17.22-.1.15a2,2,0,0,1-.42.44h0a2.07,2.07,0,0,1-.45.48,2.48,2.48,0,0,1-.51.33,2.09,2.09,0,0,1-.91.53,1.88,1.88,0,0,1-.68.26,1.91,1.91,0,0,1-.45.13l-.09,0-.23,0-.18,0a2.11,2.11,0,0,1-.56,0,2,2,0,0,1-1.23-.36,2,2,0,0,1-.45-.43l-.05,0a3.21,3.21,0,0,1-2.41-1.51,2.06,2.06,0,0,1-.39-.61,2.52,2.52,0,0,1-.44-.7l-.07-.16A2.38,2.38,0,0,1,27.9,18v0a2.69,2.69,0,0,1-.44-.84,2.46,2.46,0,0,1-.07-.29A2.85,2.85,0,0,1,27,16l-.12-.31c0-.14-.06-.27-.08-.41a2.55,2.55,0,0,1-.26-.61c0-.11-.05-.23-.07-.35A1.91,1.91,0,0,1,26.3,14a2.54,2.54,0,0,1-.09-.54c-.07-.11-.15-.27-.2-.35a2.54,2.54,0,0,1,.34-2.61,1.83,1.83,0,0,1,.13-.16.5.5,0,0,1,.05-.13A2.79,2.79,0,0,1,25.73,9a2.63,2.63,0,0,1,.37-2.34,2.24,2.24,0,0,1,.51-.51,2.73,2.73,0,0,1,.49-1.32l.13-.17c0-.09-.07-.19-.1-.29a2.5,2.5,0,0,1,.36-2.1A2.88,2.88,0,0,1,27.71,2L27.77,2l.08-.09a2.09,2.09,0,0,1,.22-.2,1.93,1.93,0,0,1,.33-.31A2.46,2.46,0,0,1,28.84,1a3,3,0,0,1,.38-.24,2,2,0,0,1,.32-.17,1.63,1.63,0,0,1,.38-.17,2,2,0,0,1,.59-.2A1.69,1.69,0,0,1,31,.12a1.73,1.73,0,0,1,.32,0A1.28,1.28,0,0,1,31.61,0h.07a2.22,2.22,0,0,1,.58,0,2,2,0,0,1,1,.36,1.78,1.78,0,0,1,.26.22l.43.32A3.17,3.17,0,0,1,36,2.21a2.36,2.36,0,0,1,.41.71l0,0a2.26,2.26,0,0,1,.52.81,2.41,2.41,0,0,1,.39.68A1.86,1.86,0,0,1,37.57,4.78Z"/><path class="cls-1" d="M60.35,17.77a3,3,0,0,1,.12.32h0a2.36,2.36,0,0,1,.28.6s0,.05,0,.07a2.34,2.34,0,0,1,.13.35l0,.1a1.72,1.72,0,0,1,.07.21.19.19,0,0,1,0,.08,2.52,2.52,0,0,1,.13.33c0,.05,0,.1,0,.16a1.71,1.71,0,0,1,.09.27,1.61,1.61,0,0,1,.08.38.56.56,0,0,1,0,.12,1.4,1.4,0,0,1,.06.28l.06.17a.14.14,0,0,0,0,.06.24.24,0,0,0,0,.08,2.47,2.47,0,0,1,.06.29,2.5,2.5,0,0,1-.37,2.07,2.13,2.13,0,0,1-1,.78A3,3,0,0,1,61,25.73a2.57,2.57,0,0,1,0,1.6,2.62,2.62,0,0,1-.43,1.47,2.54,2.54,0,0,1,.26.49,2.57,2.57,0,0,1-.33,2.47A2.52,2.52,0,0,1,60,33.07a2.43,2.43,0,0,1-.2.25l-.09.12a2,2,0,0,1-.42.45h0a2,2,0,0,1-.36.4,2.43,2.43,0,0,1-.58.41,2,2,0,0,1-.83.51,2.08,2.08,0,0,1-.72.3,1.34,1.34,0,0,1-.26.09,1.63,1.63,0,0,1-.3.07l-.18,0-.22.05a2.46,2.46,0,0,1-.54,0,1.94,1.94,0,0,1-1.24-.36,1.85,1.85,0,0,1-.45-.43l-.06-.05a3.18,3.18,0,0,1-2.41-1.49,2.29,2.29,0,0,1-.42-.64,2.92,2.92,0,0,1-.43-.68,1.19,1.19,0,0,1-.08-.2,2.31,2.31,0,0,1-.4-.76v-.05a2.64,2.64,0,0,1-.44-.83,1.67,1.67,0,0,1-.06-.29,2.61,2.61,0,0,1-.46-.85l-.09-.26a2,2,0,0,1-.08-.4,2.65,2.65,0,0,1-.27-.62c0-.11-.05-.22-.07-.33s-.1-.26-.14-.39a2.82,2.82,0,0,1-.09-.57,2.14,2.14,0,0,1-.17-.3h0a2.53,2.53,0,0,1,.33-2.6l.18-.22a.3.3,0,0,1,0-.08,2.65,2.65,0,0,1-.68-1.08,2.57,2.57,0,0,1,.37-2.33,2.1,2.1,0,0,1,.73-.66,2.77,2.77,0,0,1,.45-1.05,1.87,1.87,0,0,1,.26-.3,2.42,2.42,0,0,1,.36-2.1,2.08,2.08,0,0,1,.43-.46l.06,0,.1-.09.15-.11a2,2,0,0,1,.47-.35,3.28,3.28,0,0,1,.31-.2A1.93,1.93,0,0,1,52,14.3l.2-.11a3.66,3.66,0,0,1,.46-.18,2,2,0,0,1,.55-.15,1.66,1.66,0,0,1,.42-.12l.27,0,.36-.08h.12a2.41,2.41,0,0,1,.38,0l.13,0a2.26,2.26,0,0,1,.52,0l.27,0a2.1,2.1,0,0,1,.87.35,2.17,2.17,0,0,1,.29.24l.32.25a2.91,2.91,0,0,1,2.12,1.33,2,2,0,0,1,.27.44c0,.07.07.15.1.23a2.58,2.58,0,0,1,.44.8l0,.08C60.2,17.5,60.28,17.63,60.35,17.77Z"/><path class="cls-1" d="M58.9,49.5a4.29,4.29,0,0,1,.19.5,3.32,3.32,0,0,1,.11,1,3.89,3.89,0,0,1,.22.59,3.08,3.08,0,0,1,.07,1.31,3.3,3.3,0,0,1,0,.77,3.28,3.28,0,0,1,.09,1.16,4.5,4.5,0,0,1,.88,1.65,3.2,3.2,0,0,1-.48,2.7,2.73,2.73,0,0,1-2,1.16l-.24,0-.12.06a5.13,5.13,0,0,1,1.41,2.25,3.18,3.18,0,0,1-.48,2.69,2.89,2.89,0,0,1-.75.73,2.63,2.63,0,0,1-.56.38A2.83,2.83,0,0,1,56,67a3,3,0,0,1-.4.2,3.13,3.13,0,0,1-.5,1.14,2.81,2.81,0,0,1-2,1.18h-.22a2.77,2.77,0,0,1-1.07.36,3.77,3.77,0,0,1-1.61-.22,2.62,2.62,0,0,1-.63.14c-2.4.29-5.71-2.27-12.86-8.58-3.53-1.53-6-2.75-7.49-4.09-4.68-2.4-7.39-4.23-7.94-6.34a3.05,3.05,0,0,1,.46-2.57l0,0a3.19,3.19,0,0,1,.55-2.39,2.77,2.77,0,0,1,1.18-1,2.64,2.64,0,0,1,1.59-.75,2.67,2.67,0,0,1,.25-.43,3.67,3.67,0,0,1,.39-.73l.05-.06a4.38,4.38,0,0,1-.55-1.16A3.25,3.25,0,0,1,25.74,39a2.76,2.76,0,0,1,1.31-1,2.66,2.66,0,0,1,.82-.56v0a3.08,3.08,0,0,1,.46-2.6,2.69,2.69,0,0,1,.63-.63,2.14,2.14,0,0,1,.2-.32,2.59,2.59,0,0,1,1.18-.94,2.93,2.93,0,0,1,.52-1.27,2.62,2.62,0,0,1,1.88-1.1,4.73,4.73,0,0,1,2.88.81,4.4,4.4,0,0,1,1.3.49,2.16,2.16,0,0,1,.57-.14,3.87,3.87,0,0,1,2.54.74,8.16,8.16,0,0,1,2.43,1.48,2.25,2.25,0,0,1,.73.28,5.88,5.88,0,0,1,.87.27,2.19,2.19,0,0,1,1.85,1,2.12,2.12,0,0,1,.35,1.21,14.11,14.11,0,0,1,1.56.8c2,.74,3.39,1.53,3.85,3a2.73,2.73,0,0,1,0,1.74l.06,0c1.91,1,3.22,1.9,3.84,3a5.18,5.18,0,0,1,1.3,1.65v0a3.42,3.42,0,0,1,.35.61A5.56,5.56,0,0,1,58.9,49.5Z"/><path class="cls-1" d="M42.05,61.79a3.45,3.45,0,0,1,.18.51,2.7,2.7,0,0,1-.41,2.32,2.43,2.43,0,0,1-1.73,1,3.15,3.15,0,0,1-1.45-.2,2.37,2.37,0,0,1-.73.57,2.66,2.66,0,0,1-.23,1.52,2.81,2.81,0,0,1-.53,2.31,2.27,2.27,0,0,1-.67.64c0,.07.05.14.07.22A2.67,2.67,0,0,1,36.17,73a3.09,3.09,0,0,1-.41.81l-.18.23a2.75,2.75,0,0,1-.49,2.12,2.35,2.35,0,0,1-1.64,1l0,0a2.14,2.14,0,0,1-1.53.91,2.23,2.23,0,0,1-.73,0,2.19,2.19,0,0,1-1.09.47,2.43,2.43,0,0,1-.89-.05,2,2,0,0,1-.41,0l-.17,0a2.31,2.31,0,0,1-1-.07,2.39,2.39,0,0,1-.94-.22,2.07,2.07,0,0,1-.64-.3,2,2,0,0,1-.34-.3l-.63-.49c-1.09-.32-2.32-.69-2.84-1.81v0a2.27,2.27,0,0,1-.32-.57,2.43,2.43,0,0,1-.39-.75.29.29,0,0,1,0-.09,2.7,2.7,0,0,1-.29-.62.75.75,0,0,0,0-.16,2.55,2.55,0,0,1-.35-1.15l-.09-.22a2.55,2.55,0,0,1,.1-1.8A2.78,2.78,0,0,1,20,68.71a2.69,2.69,0,0,1,.38-2.51l.15-.19a3.12,3.12,0,0,1-.77-1.28,2.66,2.66,0,0,1,.39-2.34l.12-.16a2.7,2.7,0,0,1,.48-1.95,2.23,2.23,0,0,1,1.34-.88,2.68,2.68,0,0,1-.45-.83,2.76,2.76,0,0,1-.14-.74A3.54,3.54,0,0,1,20.05,56a2.68,2.68,0,0,1,.05-1.83A2.81,2.81,0,0,1,20.59,52a2.28,2.28,0,0,1,1.59-1h.19l0-.06a2,2,0,0,1,2.79-.49l.16.13c1.46.19,3.23,1.51,6.45,4.32,2,.74,3.65,1.48,4.47,2.62C39.47,59.13,41.36,60.32,42.05,61.79Z"/></g></g></g></svg>