<svg xmlns="http://www.w3.org/2000/svg" viewBox="0 0 66.08 70.42"><defs><style>.cls-1{fill:#1e4553;}</style></defs><g id="Layer_2" data-name="Layer 2"><g id="Paws"><g id="paths"><path class="cls-1" d="M16,31.78a2,2,0,0,1-.09.61,1.79,1.79,0,0,1,0,.23,2.35,2.35,0,0,1-.37,1,3,3,0,0,1,0,1,2.48,2.48,0,0,1-1.19,1.76,3.17,3.17,0,0,1-.46.33,1.51,1.51,0,0,1-.22.11,2.7,2.7,0,0,1-1.28,1.61,2.36,2.36,0,0,1-.76.26,2.72,2.72,0,0,1-.11.25,1.9,1.9,0,0,1,0,.25,2.52,2.52,0,0,1-1.43,2.32,2.35,2.35,0,0,1-1.09.3,2.44,2.44,0,0,1-.67.56,2.2,2.2,0,0,1-1.25.29H6.78a2.32,2.32,0,0,1-.38,0,2.47,2.47,0,0,1-.6-.08,2.17,2.17,0,0,1-.43-.08l-.12,0-.17-.06a2.44,2.44,0,0,1-.26-.06l-.36-.15L4.4,42a1.64,1.64,0,0,1-.33-.14,2.42,2.42,0,0,1-.36-.18,2.24,2.24,0,0,1-.59-.39,2,2,0,0,1-.88-.81A2,2,0,0,1,2,39.74l-.12-.1C1.05,39,0,38.12.15,36.75A1.85,1.85,0,0,1,0,36a3.24,3.24,0,0,1,0-.45,1.93,1.93,0,0,1,0-.34,2.66,2.66,0,0,1,0-.69l0-.09a2.69,2.69,0,0,1,0-.49.78.78,0,0,0,0-.16,3,3,0,0,1,0-.51c0-.1,0-.2.07-.3a2,2,0,0,1,0-.34.36.36,0,0,1,0-.11v-.07l0-.17s0-.08,0-.12a2.46,2.46,0,0,1,1.21-1.76A2.19,2.19,0,0,1,3,30.2l.19-.12a2.19,2.19,0,0,1,1-.3,2.41,2.41,0,0,1,.24-.73,2.82,2.82,0,0,1-1.19-2.21v-.05a2.56,2.56,0,0,1,1.41-2.22,2.17,2.17,0,0,1,1.16-.28L6,24.17a2.31,2.31,0,0,1,1.48-.27,2.33,2.33,0,0,1,.74-.65A2.2,2.2,0,0,1,10,23.07l.27.1a2.62,2.62,0,0,1,.56.09,2.61,2.61,0,0,1,.56.26l.07,0a2.1,2.1,0,0,1,.87.47c1,.34,1.39,1.17,1.92,2.41A3.58,3.58,0,0,1,15.73,29a.66.66,0,0,1,0,.14,2.52,2.52,0,0,1,.14,1.2s0,.05,0,.08a2.33,2.33,0,0,1,.06.75,1.75,1.75,0,0,1,.06.33A1.77,1.77,0,0,1,16,31.78Z"/><path class="cls-1" d="M28.57,12a2.33,2.33,0,0,1-.1.64,1.49,1.49,0,0,1,0,.21,2.44,2.44,0,0,1-.39,1,3,3,0,0,1,0,.84,2.51,2.51,0,0,1-1.24,1.79l-.07,0a2.71,2.71,0,0,1-.35.24l-.23.11a2.65,2.65,0,0,1-1.29,1.59,2.06,2.06,0,0,1-.68.25,1.92,1.92,0,0,1-.11.31,2.5,2.5,0,0,1,0,.4,2.55,2.55,0,0,1-1.42,2.25,2.2,2.2,0,0,1-1.34.29,2.64,2.64,0,0,1-.75.66,2.22,2.22,0,0,1-1.55.25,2,2,0,0,1-.64-.08l-.25,0-.29-.07-.22-.08-.21-.06a1.61,1.61,0,0,1-.38-.16H17a2.17,2.17,0,0,1-.35-.15,1.65,1.65,0,0,1-.37-.2,2.24,2.24,0,0,1-.63-.44,2,2,0,0,1-.81-.77A2,2,0,0,1,14.6,20l-.12-.22-.2-.18c-.91-.82-1.94-1.76-1.84-3.09a2.46,2.46,0,0,1-.11-.72,1.78,1.78,0,0,1,0-.46,1.53,1.53,0,0,1,0-.37,3.05,3.05,0,0,1,0-.74.43.43,0,0,0,0-.05,2.36,2.36,0,0,1,0-.46,1.49,1.49,0,0,1,0-.21,2.45,2.45,0,0,1,0-.54,2.38,2.38,0,0,1,.05-.26,2.58,2.58,0,0,1,0-.39,2.4,2.4,0,0,1,1.21-1.75,2.15,2.15,0,0,1,1-.28,3.34,3.34,0,0,1,.75-.57,2.12,2.12,0,0,1,1-.3,2.69,2.69,0,0,1,.22-.64,3.08,3.08,0,0,1-1.16-2.32,2.61,2.61,0,0,1,1.42-2.2A2.14,2.14,0,0,1,18.14,4l.15-.09a2.23,2.23,0,0,1,1.54-.26,2.57,2.57,0,0,1,.7-.61,2.24,2.24,0,0,1,1.81-.18l.24.09a2.51,2.51,0,0,1,.6.1,2.31,2.31,0,0,1,.51.22l.11,0a2.24,2.24,0,0,1,.78.41,2.3,2.3,0,0,1,.93.58,1.94,1.94,0,0,1,.55.62,1.89,1.89,0,0,1,.19.44c.13.22.25.47.38.74.84.74,1.77,1.57,1.77,2.79v0a2.3,2.3,0,0,1,.06.83,2.46,2.46,0,0,1,.08,1s0,.09,0,.13a2.73,2.73,0,0,1,0,.7,1,1,0,0,1,0,.25S28.57,11.92,28.57,12Z"/><path class="cls-1" d="M49,8.18a2.26,2.26,0,0,1-.07.56,2.48,2.48,0,0,1,0,.27,2.43,2.43,0,0,1-.31.88,2.79,2.79,0,0,1,.11,1.28,2.4,2.4,0,0,1-.66,1.35,2.82,2.82,0,0,1-.83.78.34.34,0,0,1,0,.1,2.76,2.76,0,0,1-1.75,2.23,2.41,2.41,0,0,1-.18.7,2.29,2.29,0,0,1,.06.54,2.59,2.59,0,0,1-1.43,2.24,2.27,2.27,0,0,1-1.39.29l-.22.07a2.46,2.46,0,0,1-.83.77,2.23,2.23,0,0,1-1.64.24l-.24,0a1.55,1.55,0,0,1-.36-.08l-.13,0a1.67,1.67,0,0,1-.3-.08,1.75,1.75,0,0,1-.32-.12l-.09,0a1.84,1.84,0,0,1-.35-.15,2.31,2.31,0,0,1-.35-.18,2.37,2.37,0,0,1-.65-.45,2,2,0,0,1-.79-.77,2,2,0,0,1-.26-.73l-.24-.47-.23-.21c-1-.93-2-1.87-1.94-3.22a2.49,2.49,0,0,1-.14-.71,2.25,2.25,0,0,1-.06-.64,2.17,2.17,0,0,1,0-.26,2.48,2.48,0,0,1,0-.86h0a2.54,2.54,0,0,1,0-.39c0-.11,0-.22,0-.33a2.8,2.8,0,0,1,0-.57,2.51,2.51,0,0,1,1.22-1.76,2,2,0,0,1,.57-.22,2.76,2.76,0,0,1,1.24-1.34,2.23,2.23,0,0,1,1.05-.3,2.53,2.53,0,0,1,.22-.62,2.89,2.89,0,0,1-1.15-2.28A2.61,2.61,0,0,1,38,1.41a2.13,2.13,0,0,1,1.28-.27l.1-.06A2.26,2.26,0,0,1,41,.84a2.55,2.55,0,0,1,.66-.55A2.19,2.19,0,0,1,43.42.11l.34.13a2.39,2.39,0,0,1,1.15.4H45a2.25,2.25,0,0,1,.84.48,2.12,2.12,0,0,1,.65.68,2,2,0,0,1,.2.48l.32.62a3.83,3.83,0,0,1,1.69,2.55,2.47,2.47,0,0,1,.1,1v0a3,3,0,0,1,.12.89,3.37,3.37,0,0,1,.1.34A2.89,2.89,0,0,1,49,8.18Z"/><path class="cls-1" d="M66.08,26a2.93,2.93,0,0,1,0,.41,2.44,2.44,0,0,1-1.11,1.69,2.66,2.66,0,0,1,0,.75,2.62,2.62,0,0,1-1.37,2.08L63.4,31a2.42,2.42,0,0,1-.19,1,3.11,3.11,0,0,1,.06.44,2.51,2.51,0,0,1-1.43,2.32,2.27,2.27,0,0,1-.65.26,2.59,2.59,0,0,1-.93.93,2.3,2.3,0,0,1-.84.27l-.15,0a2.09,2.09,0,0,1-.56,0,2.18,2.18,0,0,1-.57,0h-.29a2.32,2.32,0,0,1-.38-.06,1.9,1.9,0,0,1-.53-.09,1.44,1.44,0,0,1-.4-.09l-.12,0h0L56.21,36a2.17,2.17,0,0,1-.68-.34,1.92,1.92,0,0,1-1-.87,2.18,2.18,0,0,1-.25-.73l-.05,0c-.75-.61-1.81-1.41-1.7-2.77a2.4,2.4,0,0,1-.17-.76,3.86,3.86,0,0,1-.06-.49,2.75,2.75,0,0,1,0-.4,2.49,2.49,0,0,1-.05-.82,3.15,3.15,0,0,1,0-.53,1.55,1.55,0,0,1,0-.22,2.62,2.62,0,0,1,0-.79.44.44,0,0,1,0-.1,2.35,2.35,0,0,1,0-.53,2,2,0,0,1,0-.23,3,3,0,0,1,0-.42,2.48,2.48,0,0,1,1.22-1.76,2.09,2.09,0,0,1,1-.27,4.66,4.66,0,0,1,.54-.38,2.22,2.22,0,0,1,.89-.29,2.54,2.54,0,0,1,.31-1,2.57,2.57,0,0,1-1.21-2.08,2.47,2.47,0,0,1,1.42-2.28,2.2,2.2,0,0,1,1.29-.26,2.57,2.57,0,0,1,.74-.65,2.18,2.18,0,0,1,1.43-.27,2.16,2.16,0,0,1,.88,0l.29.1a2.23,2.23,0,0,1,.78.09l.15.06h0a1.71,1.71,0,0,1,.34.13,2.08,2.08,0,0,1,.65.37,1.94,1.94,0,0,1,.6.64l.11.22c.15.26.3.55.46.87a3.8,3.8,0,0,1,1.5,2.13,2.6,2.6,0,0,1,.15.67,2.64,2.64,0,0,1,.08.49,2.66,2.66,0,0,1,0,.85c0,.09,0,.18,0,.27A2.82,2.82,0,0,1,66,25.13a2.6,2.6,0,0,1,0,.56A2.83,2.83,0,0,1,66.08,26Z"/><path class="cls-1" d="M57.91,56.77a3.43,3.43,0,0,1,0,.56,3.09,3.09,0,0,1-1.55,2.23l-.12.07a4.75,4.75,0,0,1,.27,2.31,3.25,3.25,0,0,1-1.62,2.32,2.64,2.64,0,0,1-.38.18,3.38,3.38,0,0,1-1.09,1,2.81,2.81,0,0,1-2,.31,2.85,2.85,0,0,1-.5.14,3.35,3.35,0,0,1-1.39,1.52,2.75,2.75,0,0,1-2.28.22l-.31-.12-.08,0a2.93,2.93,0,0,1-2.42.22,3.26,3.26,0,0,1-.48-.2,2.62,2.62,0,0,1-1.2-.13,3.41,3.41,0,0,1-.79-.39,2.35,2.35,0,0,1-.57-.13c-1-.32-1.86-1.2-2.87-2.89A4.75,4.75,0,0,1,37,62.81a2.91,2.91,0,0,1-.56.82,3,3,0,0,1-1.4,2,3,3,0,0,1-1.36,1.58,2.08,2.08,0,0,1-.53.23,2.7,2.7,0,0,1-.33.22l-.33.16a2.78,2.78,0,0,1-.83.73,2.43,2.43,0,0,1-2,.2l-.15,0a2.41,2.41,0,0,1-.43-.1l-.31-.13-.19.12a2.24,2.24,0,0,1-1.81.19l-.08,0a2.73,2.73,0,0,1-1.25,1.39,2.26,2.26,0,0,1-1.9.19,2.06,2.06,0,0,1-.48-.21,2.29,2.29,0,0,1-.78-.1l-.12,0-.18.11a2.25,2.25,0,0,1-1.83.18,2.16,2.16,0,0,1-.55-.27l-.13-.08a1.57,1.57,0,0,1-.29-.08,2.25,2.25,0,0,1-.52-.24l-.31-.19a2.56,2.56,0,0,1-.59-.45,2,2,0,0,1-.78-.76,2,2,0,0,1-.25-.77c0-.08-.09-.16-.13-.25L16.4,67c-.87-.79-1.86-1.68-1.86-2.93V64a3.18,3.18,0,0,1-.21-.79,2.62,2.62,0,0,1-.09-.56,2.75,2.75,0,0,1,0-.86h0a3,3,0,0,1-.19-1,2.82,2.82,0,0,1,0-.58,2.43,2.43,0,0,1,1.13-1.7A2.8,2.8,0,0,1,15,57.37a2.69,2.69,0,0,1,1.43-2.17l.26-.13a3.14,3.14,0,0,1-.12-1.36,2.71,2.71,0,0,1,.09-.41,4.68,4.68,0,0,1-1.3-3.4,2.75,2.75,0,0,1,.95-1.76,2.7,2.7,0,0,1,1-1.5l0-.15a2.79,2.79,0,0,1,1.4-2,1.68,1.68,0,0,1,.3-.15,3,3,0,0,1,.4-.87,3.79,3.79,0,0,1-.28-2,3,3,0,0,1,1.44-2.11,2.89,2.89,0,0,1,.62-.47,2,2,0,0,1,.56-.24,3.18,3.18,0,0,1,0-.62,3.3,3.3,0,0,1,.24-.79,3.7,3.7,0,0,1,0-1.2,3.12,3.12,0,0,1,1.28-2,3.22,3.22,0,0,1,.74-1.13,3.2,3.2,0,0,1,1.5-1.9,2.92,2.92,0,0,1,1.63-.39,3.18,3.18,0,0,1,.7-.85l0-.18a3.29,3.29,0,0,1,1.62-2.32,2.93,2.93,0,0,1,2.47-.23,3.07,3.07,0,0,1,.71.34H33a3.13,3.13,0,0,1,.46-.32,2.88,2.88,0,0,1,2.4-.22A5.09,5.09,0,0,1,38,28.5a4.18,4.18,0,0,1,1.18.8l.17-.1A2.57,2.57,0,0,1,41.5,29a3.5,3.5,0,0,1,1.41.9,2.55,2.55,0,0,1,.77.14,3.33,3.33,0,0,1,1.3.83,3.67,3.67,0,0,1,.66.51,3.62,3.62,0,0,1,.6.53c1.06.48,1.95,1.71,3.13,4.13a7.51,7.51,0,0,1,1.28,1.77l0,0A3.1,3.1,0,0,1,51.75,39l.28.11a1.91,1.91,0,0,1,1.83,1.26,1.94,1.94,0,0,1,.15.73,2.09,2.09,0,0,1,.83,2.66l.44.47A2.94,2.94,0,0,1,57,46.66a2.52,2.52,0,0,1-.08.67,4.07,4.07,0,0,1,.68,2.53,3.47,3.47,0,0,1,0,1.2,4,4,0,0,1-.17.62,4.21,4.21,0,0,1,.24,2.14,2.91,2.91,0,0,1-.31.87A5.15,5.15,0,0,1,57.91,56.77Z"/></g></g></g></svg>