<svg xmlns="http://www.w3.org/2000/svg" viewBox="0 0 66.2 75.03"><defs><style>.cls-1{fill:#1e4553;}</style></defs><g id="Layer_2" data-name="Layer 2"><g id="Paws"><g id="paths"><path class="cls-1" d="M15.16,25c0,.1,0,.21,0,.31a2.3,2.3,0,0,1,0,.52.88.88,0,0,1,0,.16c0,.05,0,.09,0,.14s0,.06,0,.09,0,.23,0,.35,0,.17,0,.26A.88.88,0,0,0,15,27c0,.15-.06.28-.1.42a.17.17,0,0,0,0,.07c0,.14-.06.27-.1.4v0a1.57,1.57,0,0,1,0,.23l-.06.22a2.16,2.16,0,0,1-.21.62,1.62,1.62,0,0,1-.12.43A2.46,2.46,0,0,1,13.14,31a2.11,2.11,0,0,1-1.06.29v.05a2.55,2.55,0,0,1-1,1.72,2.89,2.89,0,0,1-.86.79,2.58,2.58,0,0,1,0,.62A2.45,2.45,0,0,1,9,36.2a1.88,1.88,0,0,1-.84.26,2.35,2.35,0,0,1-.47.36,2.21,2.21,0,0,1-.64.23,2.11,2.11,0,0,1-.71.17,1.87,1.87,0,0,1-.66.15,1.88,1.88,0,0,1-.58,0,2.2,2.2,0,0,1-.92,0,1.94,1.94,0,0,1-.59,0,1.73,1.73,0,0,1-.72-.16A2.06,2.06,0,0,1,2.32,37a2,2,0,0,1-1.2-.92,2.15,2.15,0,0,1-1-1.69,1.75,1.75,0,0,1,0-.23,2.65,2.65,0,0,1,0-.5.92.92,0,0,0,0-.16,2.47,2.47,0,0,1,0-.55s0-.08,0-.12v-.07s0-.09,0-.13a4.17,4.17,0,0,1,0-.5,2.56,2.56,0,0,1,.05-.27,3,3,0,0,1,0-.6,2.57,2.57,0,0,1,.11-.48,2.58,2.58,0,0,1,0-.68s0-.06,0-.09a.49.49,0,0,1,0-.12,2.73,2.73,0,0,1,.15-.56,1.91,1.91,0,0,1,0-.41,2.83,2.83,0,0,1,.13-.5c0-.05,0-.12,0-.18a2.45,2.45,0,0,1,.18-.6A2.12,2.12,0,0,1,1.14,26a2.47,2.47,0,0,1,1.13-1.43l0,0a2.83,2.83,0,0,1,0-.77,2.56,2.56,0,0,1,1.32-2,2,2,0,0,1,.77-.26,2.56,2.56,0,0,1,.56-.63,1.94,1.94,0,0,1,0-.24A2.51,2.51,0,0,1,6.18,18.9l0,0,.15-.09a1.38,1.38,0,0,1,.39-.18l0,0a2.53,2.53,0,0,1,.37-.18l.17-.06.1,0a1.41,1.41,0,0,1,.22-.06,2.12,2.12,0,0,1,.55-.14A2,2,0,0,1,8.64,18a1.7,1.7,0,0,1,.5-.05,1.63,1.63,0,0,1,.38,0,1.7,1.7,0,0,1,.39,0,2.16,2.16,0,0,1,.62.09h0a2.57,2.57,0,0,1,.4.07l.3.11.33.08.1,0a2,2,0,0,1,.44.22,2,2,0,0,1,1,.85,2.21,2.21,0,0,1,.24.68h0a3.27,3.27,0,0,1,1.59,2.4A2.36,2.36,0,0,1,15,23.62v0a2.45,2.45,0,0,1,.08.94A3,3,0,0,1,15.16,25Z"/><path class="cls-1" d="M31.36,6.55a1.62,1.62,0,0,1,0,.31,2.27,2.27,0,0,1,0,.52.17.17,0,0,0,0,.07c0,.08,0,.16,0,.25a2.58,2.58,0,0,1,0,.48s0,.07,0,.11a2.4,2.4,0,0,1,0,.37,2.61,2.61,0,0,1-.06.27,2.45,2.45,0,0,1,0,.27c0,.06,0,.13,0,.2a2.48,2.48,0,0,1,0,.27,1,1,0,0,1,0,.17l0,.1a.88.88,0,0,1,0,.17,2.8,2.8,0,0,1-.12.5l0,.25a1.6,1.6,0,0,1-.05.21.28.28,0,0,1,0,.09,2.46,2.46,0,0,1-1.21,1.76,2.18,2.18,0,0,1-.71.26,2.88,2.88,0,0,1,0,.72,2.48,2.48,0,0,1-.64,1.41,2.8,2.8,0,0,1-1.09,1.24,2.17,2.17,0,0,1,0,.37A2.53,2.53,0,0,1,25.8,19.1l-.22.11a2.53,2.53,0,0,1-.78.71,2,2,0,0,1-.66.24,2.11,2.11,0,0,1-.78.18,2.06,2.06,0,0,1-.69.13,2.15,2.15,0,0,1-.62,0,2.14,2.14,0,0,1-1-.05l0,0a2,2,0,0,1-.54-.08l-.16-.05a1.67,1.67,0,0,1-.3-.08H20a2.3,2.3,0,0,1-.39-.17h0a1.82,1.82,0,0,1-.63-.29,2,2,0,0,1-.9-.82,2.87,2.87,0,0,1-.18-.4,2.71,2.71,0,0,1-1.3-2.19,2.51,2.51,0,0,1,0-.68h0a2.41,2.41,0,0,1,0-.66v0c0-.05,0-.1,0-.15s0,0,0-.07a2,2,0,0,1,0-.54,2,2,0,0,1,0-.24,2.42,2.42,0,0,1,0-.6,2.07,2.07,0,0,1,.12-.49,2.58,2.58,0,0,1,0-.62l0-.16v0a2.43,2.43,0,0,1,.17-.6,1.55,1.55,0,0,1,0-.31,2.67,2.67,0,0,1,.16-.57s0,0,0-.07a2.23,2.23,0,0,1,.22-.69,2.42,2.42,0,0,1,1.4-2.27,2.87,2.87,0,0,1,.4-.18,2.47,2.47,0,0,1-.1-1,2.58,2.58,0,0,1,1.32-2A2.07,2.07,0,0,1,21.2,4a2.5,2.5,0,0,1,.48-.55,2.07,2.07,0,0,1,0-.35A2.47,2.47,0,0,1,22.8,1.45a1.69,1.69,0,0,1,.31-.21l.11-.06a1.57,1.57,0,0,1,.3-.2l0,0,.07,0,.11-.06.06,0L24,.72l0,0a2.87,2.87,0,0,1,.4-.18l.37-.14a2.52,2.52,0,0,1,.39-.12,1.4,1.4,0,0,1,.35-.1,1.7,1.7,0,0,1,.31-.06A1.88,1.88,0,0,1,26.45,0a1.9,1.9,0,0,1,.63,0h.3a2,2,0,0,1,.43.07h.05a1.94,1.94,0,0,1,.42.07h0a2,2,0,0,1,.34.12,2,2,0,0,1,1.16.92,1.87,1.87,0,0,1,.15.32,2.4,2.4,0,0,1,1.18,2,2.89,2.89,0,0,1,.09.61,2.18,2.18,0,0,1,0,.25v0a2.23,2.23,0,0,1,.08.9s0,.07,0,.1a2.54,2.54,0,0,1,0,.83h0C31.35,6.31,31.36,6.43,31.36,6.55Z"/><path class="cls-1" d="M52.91,10.14c0,.1,0,.2,0,.3v0a3.39,3.39,0,0,1,0,.45.43.43,0,0,1,0,.11,1.8,1.8,0,0,1,0,.22s0,.06,0,.1a2,2,0,0,1,0,.34.59.59,0,0,1,0,.13c0,.11,0,.22,0,.34a2.22,2.22,0,0,1-.09.37c0,.05,0,.09,0,.14a2,2,0,0,1,0,.24,1,1,0,0,1,0,.24.68.68,0,0,1,0,.14,2.21,2.21,0,0,1,0,.25h0a2.67,2.67,0,0,1-.16.57s0,.09,0,.14a2.22,2.22,0,0,1-.09.37,2.58,2.58,0,0,1-.34.86l0,.23a2.82,2.82,0,0,1-.07.31,2.47,2.47,0,0,1-1.19,1.58,1.93,1.93,0,0,1-.62.23,2.62,2.62,0,0,1-.49.69,2.75,2.75,0,0,1-1,1.06,2.59,2.59,0,0,1,0,.92,2.51,2.51,0,0,1-1.23,1.78,1.93,1.93,0,0,1-.58.22,2.4,2.4,0,0,1-.65.53,2.06,2.06,0,0,1-.48.21,2,2,0,0,1-.68.21,2,2,0,0,1-.63.2,1.88,1.88,0,0,1-.63,0,2.25,2.25,0,0,1-.93.05,2.17,2.17,0,0,1-.68,0,2.57,2.57,0,0,1-.4-.06l-.11,0-.07,0a1.7,1.7,0,0,1-.65-.21,1.94,1.94,0,0,1-1.2-.93l-.07-.12a2.25,2.25,0,0,1-1.09-1.82v-.14a2.52,2.52,0,0,1,0-.57v-.07a2.79,2.79,0,0,1,0-.66s0,0,0-.07a.41.41,0,0,1,0-.11v0a2.56,2.56,0,0,1,0-.62l0-.21a2.65,2.65,0,0,1,0-.69,2.16,2.16,0,0,1,.1-.44,2.41,2.41,0,0,1,0-.76v0c0-.06,0-.12,0-.18a2.72,2.72,0,0,1,.13-.51,2.85,2.85,0,0,1,0-.5,2.26,2.26,0,0,1,.11-.43,2.11,2.11,0,0,1,0-.26,2.28,2.28,0,0,1,.17-.58s0-.06,0-.09A2.2,2.2,0,0,1,39.37,12a2.49,2.49,0,0,1,1.15-1.46l0,0a3,3,0,0,1-.05-.8,2.58,2.58,0,0,1,1.32-2,2.36,2.36,0,0,1,.52-.21l0-.22a2.5,2.5,0,0,1,1.06-1.67,2.53,2.53,0,0,1,.27-.18A1.87,1.87,0,0,1,44,5.28a2.61,2.61,0,0,1,.46-.34,1.69,1.69,0,0,1,.27-.13,2,2,0,0,1,.46-.18,2,2,0,0,1,.46-.18l.09,0,.09,0a1.55,1.55,0,0,1,.36-.08,2,2,0,0,1,.43-.08,2,2,0,0,1,.54-.06,2.26,2.26,0,0,1,.45,0,1.6,1.6,0,0,1,.38,0,2.58,2.58,0,0,1,.39,0,1.93,1.93,0,0,1,.48.08l.07,0a1.86,1.86,0,0,1,.34.06,2.05,2.05,0,0,1,.41.16A1.22,1.22,0,0,1,50,4.6a2.36,2.36,0,0,1,.28.12l.2.11a1.94,1.94,0,0,1,.94.83,1.83,1.83,0,0,1,.18.41,2.53,2.53,0,0,1,1.24,2,2.29,2.29,0,0,1,0,.65.88.88,0,0,1,0,.17,2.35,2.35,0,0,1,0,.8.07.07,0,0,1,0,0A2.07,2.07,0,0,1,52.91,10.14Z"/><path class="cls-1" d="M66.2,31.41c0,.09,0,.18,0,.28a.13.13,0,0,1,0,.06v0c0,.05,0,.1,0,.15a2.6,2.6,0,0,1,0,.74s0,.06,0,.09,0,0,0,.08a2.62,2.62,0,0,1,0,.56l-.06.28a2.08,2.08,0,0,1,0,.43,1.4,1.4,0,0,1-.06.28,2.11,2.11,0,0,1,0,.25,2.56,2.56,0,0,1,0,.27s0,.08,0,.13a3.2,3.2,0,0,1-.1.42c0,.06,0,.12,0,.18v0a2.88,2.88,0,0,1-.09.4,2.54,2.54,0,0,1-.19.61,1.6,1.6,0,0,1-.1.31,1.59,1.59,0,0,1-.09.33,1.43,1.43,0,0,1-.08.22A2.5,2.5,0,0,1,64,39a2.13,2.13,0,0,1-1.46.24,2.88,2.88,0,0,1,.06.93,2.55,2.55,0,0,1-.83,1.6,2.78,2.78,0,0,1-.88.91,2.88,2.88,0,0,1,0,.88,2.51,2.51,0,0,1-1.23,1.78,2,2,0,0,1-.5.2,2.4,2.4,0,0,1-.7.6,1.87,1.87,0,0,1-.32.15l-.09.06a2.42,2.42,0,0,1-.58.23h0a2.41,2.41,0,0,1-.5.21,1.83,1.83,0,0,1-.61.11,1.9,1.9,0,0,1-.94.15,2.29,2.29,0,0,1-.69,0h-.3a1.59,1.59,0,0,1-.38-.07h0a1.8,1.8,0,0,1-.32-.06l-.32-.11a2.06,2.06,0,0,1-1.19-.93,2.39,2.39,0,0,1-.13-.28,2.37,2.37,0,0,1-1.19-2h0a2.09,2.09,0,0,1-.07-.67,2.21,2.21,0,0,1-.07-.78V42a2.39,2.39,0,0,1,0-.76s0-.08,0-.12a2.6,2.6,0,0,1,0-.84,2.33,2.33,0,0,1,.08-.36,4.7,4.7,0,0,1,0-1.13,1.94,1.94,0,0,1,.11-.43,2.22,2.22,0,0,1,0-.63A2.62,2.62,0,0,1,51,37.3,2,2,0,0,1,51,37a2.16,2.16,0,0,1,.16-.58c0-.05,0-.09,0-.14a2.17,2.17,0,0,1,.44-1.55,2.46,2.46,0,0,1,1.13-1.41l.09-.05a2.2,2.2,0,0,1,0-.63,2.54,2.54,0,0,1,1.31-2,2,2,0,0,1,.73-.25,2.53,2.53,0,0,1,1-.95h0a2.31,2.31,0,0,1,0-.74,2.42,2.42,0,0,1,.86-1.51.52.52,0,0,1,.11-.1l.25-.19.15-.1a2.37,2.37,0,0,1,.33-.22l.12-.07.14-.09.28-.13a1.57,1.57,0,0,1,.42-.18,1.63,1.63,0,0,1,.44-.15l.3-.07a2.06,2.06,0,0,1,.66-.08,1.74,1.74,0,0,1,.56,0,2.07,2.07,0,0,1,.82.05,2.18,2.18,0,0,1,.61.11h0l.22.08a2.33,2.33,0,0,1,.36.08l.09,0a2.54,2.54,0,0,1,.41.18,2.16,2.16,0,0,1,.52.28,2,2,0,0,1,.9.82,1.73,1.73,0,0,1,.22.57,2.89,2.89,0,0,1,1.48,2.43v0a3,3,0,0,1,0,.52A3.13,3.13,0,0,1,66.2,31.41Z"/><path class="cls-1" d="M49.67,52.46a3.1,3.1,0,0,1-.05.54,2.87,2.87,0,0,1-.71,1.46A4.59,4.59,0,0,1,49.3,57a2.7,2.7,0,0,1-.17.59,1.49,1.49,0,0,1,0,.21A3.1,3.1,0,0,1,47.58,60l0,0a2.73,2.73,0,0,1-.05.5c0,.07,0,.14,0,.21a4.38,4.38,0,0,1,.15,1.84,3.18,3.18,0,0,1-1.27,2.06,3,3,0,0,1-1,1h0A3,3,0,0,1,45,66a4.08,4.08,0,0,1,0,1.26,3.2,3.2,0,0,1-1.58,2.25,2.78,2.78,0,0,1-2.29.22,4.19,4.19,0,0,1-.74-.36h-.08a4.39,4.39,0,0,1,.06,1.72,3.19,3.19,0,0,1-1.54,2.21,2.83,2.83,0,0,1-1,.34,2.59,2.59,0,0,1-.62.1,2.79,2.79,0,0,1-1.22,0,3,3,0,0,1-.52,0,3.08,3.08,0,0,1-1,.87,2.75,2.75,0,0,1-2.28.22,3.7,3.7,0,0,1-1.17-.67,2.56,2.56,0,0,1-.46-.11,4.38,4.38,0,0,1-2.1-1.74l-.37-.1c-2.07-.68-3.76-3.88-7-11.35-2.28-2.5-3.79-4.36-4.33-6-3.07-3.84-4.66-6.42-4.31-8.47a3,3,0,0,1,1.32-2h0a3.15,3.15,0,0,1,1.56-2.22,2.79,2.79,0,0,1,1.18-.36,2.59,2.59,0,0,1,1.67-.19,2.3,2.3,0,0,1,.34-.28,3.54,3.54,0,0,1,.86-.72A4.38,4.38,0,0,1,19.3,39a3.21,3.21,0,0,1,1.6-2.3,2.78,2.78,0,0,1,1.33-.37,2.58,2.58,0,0,1,1-.25,2.87,2.87,0,0,1,.05-.31,3.12,3.12,0,0,1,1.53-2.18,2.73,2.73,0,0,1,.61-.26,3.54,3.54,0,0,1,.49-.34,2.71,2.71,0,0,1,1.33-.36,3.05,3.05,0,0,1,1.08-1,2.73,2.73,0,0,1,1.48-.36,2.94,2.94,0,0,1,1.35-1.62,2,2,0,0,1,.36-.17l.22-.14a2.61,2.61,0,0,1,1.95-.27,2.73,2.73,0,0,1,1,.13,3.57,3.57,0,0,1,1.58,1.15,2.32,2.32,0,0,1,1.62-.05,3.26,3.26,0,0,1,1.57,1.24,6.1,6.1,0,0,1,1.13,1.62,6.09,6.09,0,0,1,.45.65,1.73,1.73,0,0,1,2.13,1,1.92,1.92,0,0,1,.26,1.15,1.66,1.66,0,0,1,0,.66l.28.56a2.34,2.34,0,0,1,.78,1.06,2.55,2.55,0,0,1,.78,1.34c1.42,1.39,2.49,2.66,2.32,4.17a3.22,3.22,0,0,1-.15.63,4.48,4.48,0,0,1,0,.64,4.53,4.53,0,0,1,.85,3,6,6,0,0,1,.9,2.67A4.82,4.82,0,0,1,49.67,52.46Z"/><path class="cls-1" d="M25.76,64.27a3.71,3.71,0,0,1,0,.47,2.81,2.81,0,0,1-1.4,2l-.19.09a3.17,3.17,0,0,1-1.09,1,2.38,2.38,0,0,1-1.92.2L20.94,68a2.68,2.68,0,0,1-1,.92,2.18,2.18,0,0,1-1.27.28,2.16,2.16,0,0,1-.94.15,3.23,3.23,0,0,1-.82.68,2.36,2.36,0,0,1-1.91.19l-.16-.06a2.18,2.18,0,0,1-1.09.25,2.28,2.28,0,0,1-1.16,0l-.11,0a2.14,2.14,0,0,1-1-.08,2.09,2.09,0,0,1-.35-.13,2.31,2.31,0,0,1-.55-.23l-.28-.07a2.18,2.18,0,0,1-.78-.42,2.35,2.35,0,0,1-.82-.62,2,2,0,0,1-.46-.55,1.54,1.54,0,0,1-.19-.44c-.11-.2-.23-.42-.34-.66-.87-.77-1.88-1.65-1.8-2.92a2.94,2.94,0,0,1,0-.6,2.41,2.41,0,0,1,0-.76.22.22,0,0,1,0-.08,2.73,2.73,0,0,1,0-.7l0-.16a2.6,2.6,0,0,1,0-.68,1.91,1.91,0,0,1,.12-.47v-.05a2.89,2.89,0,0,1,0-.83,2.49,2.49,0,0,1,.71-1.37,2.69,2.69,0,0,1-.21-1.24A2.65,2.65,0,0,1,8,55.16l.18-.09A3.12,3.12,0,0,1,8,53.51a2.67,2.67,0,0,1,1.35-2l.24-.12A2.7,2.7,0,0,1,10.85,50a2.24,2.24,0,0,1,1.84-.18,2.55,2.55,0,0,1,.93.56,2.18,2.18,0,0,1,.62.06,2.22,2.22,0,0,1,1-.17,1.67,1.67,0,0,1,.3-.08A2,2,0,0,1,18,51a2.3,2.3,0,0,1,.17.39A10.83,10.83,0,0,1,19,52.87c.12.14.24.3.36.47,1.4.88,2.71,1.85,2.71,3.44v0c0,.08,0,.18,0,.29a3.42,3.42,0,0,1,1.63,2.71,1.84,1.84,0,0,1,0,.31C25,61.75,25.76,63,25.76,64.27Z"/></g></g></g></svg>