<svg xmlns="http://www.w3.org/2000/svg" viewBox="0 0 62.88 75.32"><defs><style>.cls-1{fill:#1e4553;}</style></defs><g id="Layer_2" data-name="Layer 2"><g id="Paws"><g id="paths"><path class="cls-1" d="M7.49,27.35a1.07,1.07,0,0,1,.14.16,1.87,1.87,0,0,1,.34.4.2.2,0,0,1,.08.08,2.24,2.24,0,0,1,.33.43l.09.1,0,.05.08.1,0,0a2.34,2.34,0,0,1,.2.27l.09.13.09.14H9a2.48,2.48,0,0,1,.32.54s0,0,0,.05l.08.09a2.18,2.18,0,0,1,.29.49l0,.06a2.27,2.27,0,0,1,.36.69l0,0a2.38,2.38,0,0,1,.34.65,2.18,2.18,0,0,1,.32.81,2,2,0,0,1,.28.52,2.23,2.23,0,0,1,.22.72,2.35,2.35,0,0,1,.32.83,2.6,2.6,0,0,1,.16.47,2.42,2.42,0,0,1,.19.7,2.35,2.35,0,0,1,.13.64,2.48,2.48,0,0,1,.18,1,2.32,2.32,0,0,1,.17.87.36.36,0,0,1,0,.1,2.45,2.45,0,0,1,.07.72,2.88,2.88,0,0,1,.06.59,2.22,2.22,0,0,1,0,.37,1.41,1.41,0,0,1,0,.2,1.42,1.42,0,0,1,0,.29v.08a2.72,2.72,0,0,1,0,.28,2.62,2.62,0,0,1,0,.62,2.49,2.49,0,0,1,0,.94,2.41,2.41,0,0,1,0,.6,2.57,2.57,0,0,1-.08.38.24.24,0,0,0,0,.08,2.82,2.82,0,0,1-.09.71,1.94,1.94,0,0,1-.07.33,1.8,1.8,0,0,1-.08.39s0,.06,0,.09l-.06.22a.64.64,0,0,1-.06.18,2.21,2.21,0,0,1-.05.25,2.77,2.77,0,0,1-.1.26s0,0,0,.06-.05.14-.07.21a3.25,3.25,0,0,1-.18.43,0,0,0,0,1,0,0,1.84,1.84,0,0,1-.16.41,2.56,2.56,0,0,1-.23.47l-.12.23a4,4,0,0,1-.2.35s-.07.11-.11.17l-.19.26a2.61,2.61,0,0,1-.31.43l-.12.15a2.27,2.27,0,0,1-.3.32,2.31,2.31,0,0,1-.36.34,1.51,1.51,0,0,1-.23.21,2.48,2.48,0,0,1-.26.19,2,2,0,0,1-.46.26,1.88,1.88,0,0,1-.9.4A2,2,0,0,1,6,50.92a2.05,2.05,0,0,1-.68-.63A2.09,2.09,0,0,1,5,50.05l-.16-.17-.12-.12a1.63,1.63,0,0,1-.17-.2l0,0-.15-.19-.2-.2-.23-.33-.14-.16-.09-.13a1.19,1.19,0,0,1-.16-.23l-.1-.12a2.14,2.14,0,0,1-.26-.43l-.09-.1a1.53,1.53,0,0,1-.19-.3l-.07-.1a2.82,2.82,0,0,1-.26-.44,2,2,0,0,1-.17-.32A2.27,2.27,0,0,1,2.14,46a2.18,2.18,0,0,1-.27-.58,2.07,2.07,0,0,1-.28-.58.85.85,0,0,1-.09-.22,3,3,0,0,1-.23-.56,3,3,0,0,1-.19-.5,2.57,2.57,0,0,1-.15-.47,2.16,2.16,0,0,1-.14-.43,2.44,2.44,0,0,1-.15-.75,2.75,2.75,0,0,1-.17-.45,2.26,2.26,0,0,1-.1-.69c0-.1-.07-.2-.1-.3a2.34,2.34,0,0,1-.12-.92,1.65,1.65,0,0,1,0-.38,1.86,1.86,0,0,1,0-.33.76.76,0,0,1,0-.15,1,1,0,0,1,0-.24,2,2,0,0,1,0-.24,1.71,1.71,0,0,1,0-.32,2.22,2.22,0,0,1,0-.63,2.56,2.56,0,0,1,0-.73,2.64,2.64,0,0,1,.09-.88h0a2.36,2.36,0,0,1,.09-.91v0a2.59,2.59,0,0,1,.1-.67v0a3.82,3.82,0,0,1,.09-.44l0-.08a2.21,2.21,0,0,1,.08-.35A.85.85,0,0,1,.57,33a1.31,1.31,0,0,1,.06-.27,2.26,2.26,0,0,1,.17-.43c0-.11,0-.22.07-.34l.05-.15a.14.14,0,0,0,0-.06,2.08,2.08,0,0,1,.27-.58s0-.05,0-.07a2.34,2.34,0,0,1,.26-.58,2.29,2.29,0,0,1,.3-.5,2.09,2.09,0,0,1,.35-.59,2.08,2.08,0,0,1,.37-.51,2.18,2.18,0,0,1,.22-.31l.14-.15L3,28.32a1.85,1.85,0,0,1,.14-.14,1.62,1.62,0,0,1,.48-.46,2.19,2.19,0,0,1,.33-.25,1.89,1.89,0,0,1,.39-.26,2,2,0,0,1,3.05,0Z"/><path class="cls-1" d="M17.79,6.49a1.88,1.88,0,0,1,.34.46,2.12,2.12,0,0,1,.51.45,2.16,2.16,0,0,1,.24.35,1.75,1.75,0,0,1,.23.24,2.07,2.07,0,0,1,.27.45h0a2,2,0,0,1,.29.48l0,.07a2.43,2.43,0,0,1,.14.2,2.35,2.35,0,0,1,.31.56,3.27,3.27,0,0,1,.52.53,2.38,2.38,0,0,1,.18.3,2.08,2.08,0,0,1,.27.32,2.23,2.23,0,0,1,.2.33c.06.06.11.13.16.19a2.44,2.44,0,0,1,.34.71,2.35,2.35,0,0,1,.35,1,2.44,2.44,0,0,1,.23,1.1,2.38,2.38,0,0,1,.18.88l0,.19a2.5,2.5,0,0,1,.05.67,2.08,2.08,0,0,1,.05.66,1.61,1.61,0,0,1,0,.31,1.31,1.31,0,0,1,0,.28,2.22,2.22,0,0,1,0,.63,2.36,2.36,0,0,1-.07.65,2.58,2.58,0,0,1-.09.87.69.69,0,0,1,0,.1,1.85,1.85,0,0,1-.06.57,1.6,1.6,0,0,1-.05.21,2.83,2.83,0,0,1-.11.31,2.28,2.28,0,0,1-.09.51.56.56,0,0,1,0,.12l0,.16c0,.1-.07.2-.11.3l0,.07c0,.1-.07.2-.11.3h0a2.62,2.62,0,0,1-.19.46,2,2,0,0,1-.17.4,2.53,2.53,0,0,1-.18.37,2.43,2.43,0,0,1-.2.35,2.25,2.25,0,0,1-.29.5,1.83,1.83,0,0,1-.26.36,1.29,1.29,0,0,1-.22.3c0,.07-.1.14-.15.21a3.11,3.11,0,0,1-.23.28l-.2.2a2.65,2.65,0,0,1-.41.41l-.14.14a2.17,2.17,0,0,1-.29.24,3.27,3.27,0,0,1-.37.28,2,2,0,0,1-.38.26l-.12.07-.09.05a2.9,2.9,0,0,1-.47.21,1.93,1.93,0,0,1-.58.27,2,2,0,0,1-1.82,0,2.22,2.22,0,0,1-.8-.74l-.13-.12a1.32,1.32,0,0,1-.22-.26l0,0a2.42,2.42,0,0,1-.25-.31,1.07,1.07,0,0,1-.15-.22l-.06-.06a2.27,2.27,0,0,1-.3-.46l0,0a1.69,1.69,0,0,1-.21-.31.57.57,0,0,1-.08-.13l0,0a2.08,2.08,0,0,1-.33-.58,1.81,1.81,0,0,1-.2-.33l-.08-.15a3.42,3.42,0,0,1-.21-.43c0-.09-.09-.19-.13-.28a2.53,2.53,0,0,1-.24-.53,2.22,2.22,0,0,1-.19-.53,2.35,2.35,0,0,1-.23-.57c0-.07-.05-.14-.07-.22a3.27,3.27,0,0,1-.17-.53,4.13,4.13,0,0,1-.15-.5c0-.13-.07-.25-.1-.38a3.31,3.31,0,0,1-.12-.42,2.94,2.94,0,0,1-.12-.59,2.09,2.09,0,0,1-.17-.41,2.54,2.54,0,0,1-.14-.62,2.52,2.52,0,0,1-.14-.33,2.15,2.15,0,0,1-.23-1.05,2.43,2.43,0,0,1-.08-.47,2.57,2.57,0,0,1,0-.73,2.9,2.9,0,0,1,0-.51,2.48,2.48,0,0,1,0-.27,2,2,0,0,1,.06-.59,2.18,2.18,0,0,1,.08-.71,2.57,2.57,0,0,1,.09-.67,1.43,1.43,0,0,1,.08-.22,2.57,2.57,0,0,1,.09-.67l.09-.25a3.1,3.1,0,0,1,.08-.42l.09-.25a1.05,1.05,0,0,1,0-.19,1.92,1.92,0,0,1,.16-.42h0a2.12,2.12,0,0,1,.26-.57,2.07,2.07,0,0,1,.51-.79,2.35,2.35,0,0,1,.41-.63L12,7.65l.19-.16a2.34,2.34,0,0,1,.31-.32,1.78,1.78,0,0,1,.65-.48A1.83,1.83,0,0,1,14,6.28a2,2,0,0,1,1.78-.36,2.11,2.11,0,0,1,1.93.47Z"/><path class="cls-1" d="M38.85.62a2,2,0,0,1,.36.49,2.16,2.16,0,0,1,.35.63,2.31,2.31,0,0,1,.34.79,2.45,2.45,0,0,1,.25.61,2.11,2.11,0,0,1,.18.45l.12.3.15.28a2.17,2.17,0,0,1,.25.7h0a2.45,2.45,0,0,1,.4.87,2.92,2.92,0,0,1,.21.56,2.47,2.47,0,0,1,.19.64,2.09,2.09,0,0,1,.08.23,1.88,1.88,0,0,1,.13.52,2.92,2.92,0,0,1,.13.42,2.54,2.54,0,0,1,.09.54,2.42,2.42,0,0,1,.18.75,2,2,0,0,1,0,.24,2.16,2.16,0,0,1,.09.62,2.39,2.39,0,0,1,.1.66c0,.1,0,.2,0,.3s0,.07,0,.1a2.56,2.56,0,0,1,0,.39s0,.09,0,.13v.09a.61.61,0,0,1,0,.19,1.94,1.94,0,0,1,0,.34,2.9,2.9,0,0,1,0,.51,2.77,2.77,0,0,1-.06.81,3.68,3.68,0,0,1,0,.47,2.54,2.54,0,0,1-.09.54l0,.09a2.16,2.16,0,0,1-.1.75h0a1.57,1.57,0,0,1-.06.28s0,0,0,.05a2,2,0,0,1-.08.33,1.09,1.09,0,0,1,0,.17.65.65,0,0,1,0,.13,1.14,1.14,0,0,1-.09.26A1,1,0,0,1,42,17a1.78,1.78,0,0,1-.14.36,1.25,1.25,0,0,1-.09.25,2.43,2.43,0,0,1-.22.46,2.16,2.16,0,0,1-.24.48,1.9,1.9,0,0,1-.23.39,1.92,1.92,0,0,1-.23.35,1.88,1.88,0,0,1-.16.23,1.13,1.13,0,0,1-.1.13,2,2,0,0,1-.32.38,2.28,2.28,0,0,1-.37.39,1,1,0,0,1-.17.18,2,2,0,0,1-.28.23,1.57,1.57,0,0,1-.38.3,1.6,1.6,0,0,1-.38.26l-.12.08-.11,0a1.82,1.82,0,0,1-.47.21,1.92,1.92,0,0,1-.52.25,2,2,0,0,1-1.82,0,2.12,2.12,0,0,1-.84-.78l-.15-.14a2.11,2.11,0,0,1-.19-.23h0a2.06,2.06,0,0,1-.29-.37L34,20.37,34,20.31a2,2,0,0,1-.33-.51,1.51,1.51,0,0,1-.18-.26c0-.07-.08-.13-.12-.21a2.39,2.39,0,0,1-.3-.54,1.87,1.87,0,0,1-.22-.39l-.09-.18a3.54,3.54,0,0,1-.16-.34,2.28,2.28,0,0,1-.15-.36,2.48,2.48,0,0,1-.2-.44,2.42,2.42,0,0,1-.2-.59,2.25,2.25,0,0,1-.2-.51,2.33,2.33,0,0,1-.07-.25,2.16,2.16,0,0,1-.16-.55,2.44,2.44,0,0,1-.14-.46,2.46,2.46,0,0,1-.11-.45,2.6,2.6,0,0,1-.1-.4,2.57,2.57,0,0,1-.1-.73,2.64,2.64,0,0,1-.15-.55A2.5,2.5,0,0,1,31,12a2.43,2.43,0,0,1-.12-.85,2.5,2.5,0,0,1,0-.55,2.71,2.71,0,0,1,0-.29,1.69,1.69,0,0,1,0-.23V10a2.44,2.44,0,0,1,0-.27,1.84,1.84,0,0,1,0-.33.86.86,0,0,1,0-.16,2.26,2.26,0,0,1,.08-.44A2.07,2.07,0,0,1,31,8.4a1.06,1.06,0,0,1,.09-.25,2.29,2.29,0,0,1,.07-.36,2.9,2.9,0,0,1,.16-.41.94.94,0,0,0,0-.16,2.32,2.32,0,0,1,.25-.53c0-.06,0-.12,0-.18s.07-.2.11-.3a3.54,3.54,0,0,1,.16-.34.74.74,0,0,0,0-.14,2.35,2.35,0,0,1,.14-.37.64.64,0,0,0,0-.07,2.62,2.62,0,0,1,.15-.39v0a1.94,1.94,0,0,1,.17-.42h0a2.05,2.05,0,0,1,.31-.63l0-.11a1.84,1.84,0,0,1,.15-.36l0-.08A3.21,3.21,0,0,1,33.15,3a2.58,2.58,0,0,1,.19-.37,2,2,0,0,1,.38-.6,1.71,1.71,0,0,1,.51-.58,1.73,1.73,0,0,1,.63-.58,1.87,1.87,0,0,1,.71-.47,2,2,0,0,1,1.36-.3,2,2,0,0,1,1.69.35A1.32,1.32,0,0,1,38.85.62Z"/><path class="cls-1" d="M58.47,15.33a2.18,2.18,0,0,1,.32.43,2.4,2.4,0,0,1,.41.38,1.49,1.49,0,0,1,.15.2,1.37,1.37,0,0,1,.16.18s0,0,.05.05a3,3,0,0,1,.2.29l.08.1a2.36,2.36,0,0,1,.29.48l.16.18a2.16,2.16,0,0,1,.29.51l.07.09a2.21,2.21,0,0,1,.26.44,2.08,2.08,0,0,1,.22.38,2.1,2.1,0,0,1,.13.26,2.42,2.42,0,0,1,.23.58,2.17,2.17,0,0,1,.3.66,2.45,2.45,0,0,1,.22.54,2.54,2.54,0,0,1,.14.47,2.21,2.21,0,0,1,.15.5,2.11,2.11,0,0,1,.12.43,2.61,2.61,0,0,1,.06.27,2.63,2.63,0,0,1,.13.69,2.4,2.4,0,0,1,.1.48,2.24,2.24,0,0,1,.06.52,2.3,2.3,0,0,1,0,.45,2.32,2.32,0,0,1,0,.59,2.55,2.55,0,0,1-.05,1.13l-.06.17a2.64,2.64,0,0,1,.1.93c0,.08,0,.16,0,.25a2.7,2.7,0,0,1-.08.62,4,4,0,0,1-.06.47c0,.1,0,.21-.06.32a1.74,1.74,0,0,1-.05.22.29.29,0,0,1,0,.09.85.85,0,0,1,0,.17v.07s0,.11,0,.16v0a1.22,1.22,0,0,1-.06.26,2.09,2.09,0,0,1-.08.23,1,1,0,0,1,0,.17l-.06.17a.44.44,0,0,1,0,.1l-.06.17a1.43,1.43,0,0,1-.08.22.64.64,0,0,0,0,.07,2.29,2.29,0,0,1-.1.23h0a2.05,2.05,0,0,1-.22.5,1.84,1.84,0,0,1-.22.47,2.92,2.92,0,0,1-.14.31l-.06.1a1.59,1.59,0,0,1-.13.22,1.69,1.69,0,0,1-.23.36,2.42,2.42,0,0,1-.29.42,1.78,1.78,0,0,1-.62.73,2.06,2.06,0,0,1-.38.45,1.59,1.59,0,0,1-.13.13,1.71,1.71,0,0,1-.51.41,2.55,2.55,0,0,1-.71.45h0a2,2,0,0,1-2.12.48,2.12,2.12,0,0,1-1-.91l-.1-.09a1.79,1.79,0,0,1-.43-.57l-.06-.06a1.93,1.93,0,0,1-.28-.36,3.62,3.62,0,0,1-.2-.33,2.12,2.12,0,0,1-.34-.65l-.13-.15A2.53,2.53,0,0,1,53.2,33a2.1,2.1,0,0,1-.32-.61,2,2,0,0,1-.17-.32,1.86,1.86,0,0,1-.1-.25,2.06,2.06,0,0,1-.21-.48.56.56,0,0,1,0-.12,2.25,2.25,0,0,1-.23-.61,2,2,0,0,1-.18-.48l-.09-.2a1.4,1.4,0,0,1-.09-.29.65.65,0,0,1,0-.13,3.37,3.37,0,0,1-.1-.34l-.09-.33a2.19,2.19,0,0,1-.14-.5s0,0,0-.05l-.06-.24a.83.83,0,0,1,0-.15c0-.05,0-.09,0-.13a2.38,2.38,0,0,1-.05-.26,2.61,2.61,0,0,1-.06-.27,2.52,2.52,0,0,1-.08-.54,2.2,2.2,0,0,1-.12-.62,2.61,2.61,0,0,1,0-1.21,2.42,2.42,0,0,1-.21-1,3.38,3.38,0,0,1,0-.45,2.54,2.54,0,0,1,0-.39,2.1,2.1,0,0,1,0-.5,2,2,0,0,1,0-.42,2.5,2.5,0,0,1,.07-.54,2.77,2.77,0,0,1,.07-.56A2.14,2.14,0,0,1,51,20.6a1.6,1.6,0,0,1,0-.21.43.43,0,0,1,0-.05,2.33,2.33,0,0,1,.08-.36.5.5,0,0,1,0-.13,2,2,0,0,1,0-.24.88.88,0,0,0,.05-.15l0-.11a2.13,2.13,0,0,1,.14-.35.3.3,0,0,1,0-.1,2,2,0,0,1,.23-.52h0a2.25,2.25,0,0,1,.19-.45,1.92,1.92,0,0,1,.12-.25,3.45,3.45,0,0,1,.2-.32,1.94,1.94,0,0,1,.31-.44,2.4,2.4,0,0,1,.46-.59,2.73,2.73,0,0,1,.43-.47,1.45,1.45,0,0,1,.18-.17.27.27,0,0,1,.08-.07,1.8,1.8,0,0,1,.76-.51,1.72,1.72,0,0,1,.61-.35,2,2,0,0,1,1.22-.22,2,2,0,0,1,1.71.35,1.21,1.21,0,0,1,.26.23l.17.15Z"/><path class="cls-1" d="M42.77,30.27a2.88,2.88,0,0,1,.27.34l.1.15.15.13.23.26a2.63,2.63,0,0,1,.58.62,2.48,2.48,0,0,1,.35,2.15,2.11,2.11,0,0,1-.57.95,3.47,3.47,0,0,1,1.64,1.23,2.69,2.69,0,0,1,.42.91,3.31,3.31,0,0,1,.86.85,3.75,3.75,0,0,1,.24.44,3.2,3.2,0,0,1,.25.27A2.82,2.82,0,0,1,47.88,40a4.62,4.62,0,0,1,2.77,1.63,2.92,2.92,0,0,1,.55,1.41,3.46,3.46,0,0,1,.51.57,3.05,3.05,0,0,1,.51,1.26,3.81,3.81,0,0,1,.94.94,3,3,0,0,1,.36.72,4.81,4.81,0,0,1,2.09,1.63,3.09,3.09,0,0,1,.53,1.5l0,.08a3.08,3.08,0,0,1,.5,2.34,2.56,2.56,0,0,1,.2.26,2.82,2.82,0,0,1,.29.5h0a3.64,3.64,0,0,1,.4.48A3.1,3.1,0,0,1,58,56a1.74,1.74,0,0,1-.14.38,3,3,0,0,1,0,1.68,2.66,2.66,0,0,1-.59,1.08,3.12,3.12,0,0,1,0,1.14,3.6,3.6,0,0,1-.12.79,2.63,2.63,0,0,1-.89,1.34,2.59,2.59,0,0,1-.37.37,3.11,3.11,0,0,1,0,1.71,2.72,2.72,0,0,1-1.5,1.75,3.57,3.57,0,0,1-.76.25,2.67,2.67,0,0,1-1.41,1.61l-.24.1a2.33,2.33,0,0,1-.53.42,2.24,2.24,0,0,1-1,.28A2,2,0,0,1,49.1,69a1.94,1.94,0,0,1-.7-.36h-.1c-1,.08-2.36.18-3.2-.86a2.76,2.76,0,0,1-.64-.33,19.3,19.3,0,0,1-3.11-.86,38.69,38.69,0,0,1-6.17-2.12,19.34,19.34,0,0,1-5.91-.8,20.82,20.82,0,0,1-4.55-1.09,5.55,5.55,0,0,1-2.2-1.18,3.55,3.55,0,0,1-.9-.87,3.16,3.16,0,0,1-.47-2.79c0-.08.05-.16.08-.23a2.47,2.47,0,0,1-.21-.27,3.18,3.18,0,0,1-.45-2.76,2.77,2.77,0,0,1,1-1.48,2.94,2.94,0,0,1-.25-1,3.29,3.29,0,0,1-.34-.42,3.2,3.2,0,0,1-.44-2.72,2.65,2.65,0,0,1,.2-.49,3.06,3.06,0,0,1,.07-1.44,2.38,2.38,0,0,1,.25-.59c-.1-.11-.19-.22-.28-.34a3.22,3.22,0,0,1-.45-2.75,2.8,2.8,0,0,1,.44-.88,3.28,3.28,0,0,1,.07-1.55,2.62,2.62,0,0,1,.15-.39,2.78,2.78,0,0,1,.11-.86,2.75,2.75,0,0,1,1.47-1.73,3.24,3.24,0,0,1,.78-.25,2.83,2.83,0,0,1,0-1.73,2.31,2.31,0,0,1,1.26-1.49,2.64,2.64,0,0,1,1-.27v0a2.26,2.26,0,0,1,1.22-1.43,2.51,2.51,0,0,1,.75-.23l.05-.17a2.14,2.14,0,0,1,1.09-1.32h0a1.86,1.86,0,0,1,.1-.2,4,4,0,0,1,.12-.62,2.21,2.21,0,0,1,.84-1.17,2.22,2.22,0,0,1,.37-.38,2.17,2.17,0,0,1,1-1,2.3,2.3,0,0,1,.57-.21l.09,0c1.19-.58,2.55,0,5,1a1.74,1.74,0,0,1,.39.05c.67,0,1.29.08,1.86.16a2.49,2.49,0,0,1,1.71.47,2.46,2.46,0,0,1,.84.61A3.13,3.13,0,0,1,42.77,30.27Z"/><path class="cls-1" d="M37.35,61.41a2.2,2.2,0,0,1,.2.23A2.72,2.72,0,0,1,38,64.12a2.2,2.2,0,0,1-1.17,1.38h0a2.14,2.14,0,0,1-1,1.08l-.15.07a1.94,1.94,0,0,1-.41.27,1.39,1.39,0,0,1-.28.12,2.33,2.33,0,0,1-.08.36,2.13,2.13,0,0,1-1.08,1.31l-.12.06a2.61,2.61,0,0,1,.12,1.55,2.58,2.58,0,0,1-.09,1,2.17,2.17,0,0,1-.88,1.22,2.59,2.59,0,0,1-.46.41,2.46,2.46,0,0,1-.4.3,2.36,2.36,0,0,1-.36.26,1.9,1.9,0,0,1-.33.22l-.23.14-.16.09a1.11,1.11,0,0,1-.19.09,2.2,2.2,0,0,1-.3.19l-.19.08a1.19,1.19,0,0,1-.22.12l0,0h0a2.5,2.5,0,0,1-.38.15l-.07,0a2.07,2.07,0,0,1-.45.17,2.87,2.87,0,0,1-.37.15,2.68,2.68,0,0,1-.35.1,3.41,3.41,0,0,1-.54.1,2,2,0,0,1-1.37.1l-.18-.06a2.29,2.29,0,0,1-2.12-.57,2.69,2.69,0,0,1-.27-.32,2.2,2.2,0,0,1-.38-.37h0a2.73,2.73,0,0,1-.23-.25,1.34,1.34,0,0,1-.11-.14L23,73.46l-.09-.13-.21-.23a2.14,2.14,0,0,1-.2-.32l-.12-.14a1.63,1.63,0,0,1-.11-.17.78.78,0,0,1-.1-.15.76.76,0,0,1-.11-.14,2.58,2.58,0,0,1-.29-.51,2.47,2.47,0,0,1-.29-.53l0-.09a2.36,2.36,0,0,1-.21-.52,2.29,2.29,0,0,1-.12-.37,2.46,2.46,0,0,1-.15-.53,2.2,2.2,0,0,1-.12-.63,2.49,2.49,0,0,1,0-1.38,2.18,2.18,0,0,1,1-1.27l.14-.06a2.42,2.42,0,0,1-1.27-3.11,1.88,1.88,0,0,1,.12-.3A2.5,2.5,0,0,1,21,61.83l.06-.2a2.66,2.66,0,0,1-.14-1.87,2.24,2.24,0,0,1,1.16-1.38,3.28,3.28,0,0,1,2.45,0,7.71,7.71,0,0,1,2.91.77,4,4,0,0,1,1.8.15h.59a2.36,2.36,0,0,1,2.16.5,2.16,2.16,0,0,1,.35.38l.55.14C34.76,60.26,36.36,60.39,37.35,61.41Z"/></g></g></g></svg>