<svg xmlns="http://www.w3.org/2000/svg" viewBox="0 0 63.33 77.31"><defs><style>.cls-1{fill:#1e4553;}</style></defs><g id="Layer_2" data-name="Layer 2"><g id="Paws"><g id="paths"><path class="cls-1" d="M8.45,20.61a1.8,1.8,0,0,1,.29.39,1.84,1.84,0,0,1,.24.39,2.49,2.49,0,0,1,.27.51,2.22,2.22,0,0,1,.31.59,2.45,2.45,0,0,1,.26.51.49.49,0,0,0,0,.11l.06.15a2.26,2.26,0,0,1,.17.43,2.69,2.69,0,0,1,.16.45,1.88,1.88,0,0,1,.12.3,2.35,2.35,0,0,1,.14.45,2.25,2.25,0,0,1,.08.24l.06.22a2.37,2.37,0,0,1,.09.36,2.23,2.23,0,0,1,.12.51,1.86,1.86,0,0,1,.1.39v0a1.55,1.55,0,0,1,0,.21.91.91,0,0,1,0,.23,1.4,1.4,0,0,1,.06.28,1.54,1.54,0,0,1,0,.3,2.57,2.57,0,0,1,.07.4,2.45,2.45,0,0,1,0,.27,2.23,2.23,0,0,1,0,.36,2.37,2.37,0,0,1,0,.53,1.87,1.87,0,0,1,0,.34,2,2,0,0,1,0,.42,2.14,2.14,0,0,1,0,.44c0,.1,0,.21,0,.31a2.94,2.94,0,0,1,0,.42,1.71,1.71,0,0,1,0,.32,3.42,3.42,0,0,1,0,.46,2.56,2.56,0,0,1,0,.73,1.83,1.83,0,0,1,0,.33,2.2,2.2,0,0,1,0,.36,2.94,2.94,0,0,1-.05.51c0,.11,0,.23,0,.34a3,3,0,0,1-.06.42A2.07,2.07,0,0,1,11,35a2.25,2.25,0,0,1-.06.36c0,.11,0,.22-.06.34s0,.12,0,.18a1.17,1.17,0,0,1,0,.2,2.25,2.25,0,0,1-.08.24,3.15,3.15,0,0,1-.09.52v0a1.72,1.72,0,0,1-.07.21l-.06.26s0,.08,0,.13,0,.1,0,.16l0,.07a.29.29,0,0,1,0,.09,1.48,1.48,0,0,1-.1.27s0,.07,0,.1a1.53,1.53,0,0,1-.11.27l0,.13a2.13,2.13,0,0,1-.29.61c0,.1,0,.21-.07.32a2.62,2.62,0,0,1-.19.46,2.44,2.44,0,0,1-.14.28,2.44,2.44,0,0,1-.1.24.16.16,0,0,0,0,.07,1.86,1.86,0,0,1-.1.2,1.74,1.74,0,0,1-.11.18,1.74,1.74,0,0,1-.1.19,2,2,0,0,1-.14.25,2.61,2.61,0,0,1-.17.28,1.74,1.74,0,0,1-.11.18.61.61,0,0,1-.07.1l-.14.21a3.43,3.43,0,0,1-.24.33l-.06.1-.08.1s0,0,0,0a1.83,1.83,0,0,1-.44.54,1.66,1.66,0,0,1-.43.45l-.17.15a2,2,0,0,1-.41.33,2.07,2.07,0,0,1-1.36.55,2,2,0,0,1-1.68-.23,2.22,2.22,0,0,1-.74-.86,3.12,3.12,0,0,1-.27-.43c-.06-.09-.11-.18-.16-.27A2.6,2.6,0,0,1,2,42.3a2.55,2.55,0,0,1-.23-.43l0-.07a1.77,1.77,0,0,1-.18-.45A1.51,1.51,0,0,1,1.4,41a2.53,2.53,0,0,1-.19-.48,1,1,0,0,1-.05-.16,2,2,0,0,1-.1-.32,2,2,0,0,1-.1-.26l-.08-.26a2.29,2.29,0,0,1-.08-.28A1.14,1.14,0,0,1,.74,39a2.22,2.22,0,0,1-.09-.37,1.67,1.67,0,0,1-.08-.32,2.21,2.21,0,0,1-.12-.89,2.47,2.47,0,0,1-.2-.81,3,3,0,0,1-.07-.52,2.2,2.2,0,0,1,0-.37c0-.08,0-.15,0-.23a3.71,3.71,0,0,1,0-.47,2.63,2.63,0,0,1,0-.49,2.45,2.45,0,0,1,0-.27A2.78,2.78,0,0,1,0,33.67v-.13c0-.11,0-.21,0-.32a3.09,3.09,0,0,1,0-.43,2.54,2.54,0,0,1,0-.39c0-.13,0-.26,0-.39a3.11,3.11,0,0,1,0-.43,2.18,2.18,0,0,1,0-.44,1.93,1.93,0,0,1,0-.34,3.18,3.18,0,0,1,.06-.43,2.84,2.84,0,0,1,.1-.64,2.93,2.93,0,0,1,.06-.58c0-.07,0-.15,0-.23s0-.2,0-.3a3,3,0,0,1,.09-.41v0a1.67,1.67,0,0,1,.06-.29l0-.07a2.86,2.86,0,0,1,.07-.28v0l.06-.22c0-.08.05-.15.07-.23s0-.13,0-.2l.06-.17a.29.29,0,0,0,0-.09c0-.1.07-.19.11-.29l0-.11A1.42,1.42,0,0,1,1.15,26a1.89,1.89,0,0,1,.11-.25h0a1.72,1.72,0,0,1,.07-.21,1.58,1.58,0,0,1,.16-.35,1.09,1.09,0,0,1,.1-.25v0l0-.08a1.43,1.43,0,0,1,.16-.3A1.65,1.65,0,0,1,2,24a1.73,1.73,0,0,1,.16-.3,2.47,2.47,0,0,1,.29-.47l.12-.18a2.88,2.88,0,0,1,.26-.35,3.18,3.18,0,0,1,.27-.37A2,2,0,0,1,3.4,22l.18-.21.1-.1a2.73,2.73,0,0,1,.25-.23A1.67,1.67,0,0,1,4.54,21a1.54,1.54,0,0,1,.5-.35,1.84,1.84,0,0,1,.48-.28,2,2,0,0,1,.86-.24,2,2,0,0,1,1.69.19A1.74,1.74,0,0,1,8.45,20.61Z"/><path class="cls-1" d="M24.18.63a1.8,1.8,0,0,1,.28.37c0,.05.15.16.22.26a1.84,1.84,0,0,1,.2.31.86.86,0,0,1,.1.16,1.9,1.9,0,0,1,.34.54,2,2,0,0,1,.33.71l0,0a2.27,2.27,0,0,1,.37.64,3.13,3.13,0,0,1,.16.52,2.49,2.49,0,0,1,.25.52,1.87,1.87,0,0,1,.13.4,2.72,2.72,0,0,1,.17.62,3.68,3.68,0,0,1,.15.47c0,.12.06.25.08.38s.06.25.08.38a2,2,0,0,1,.08.48,2.76,2.76,0,0,1,.1.64,2.33,2.33,0,0,1,.05.28c0,.12,0,.23,0,.35a1,1,0,0,1,0,.24,2.1,2.1,0,0,1,.05.43c0,.13,0,.26,0,.39s0,.22,0,.33a2.67,2.67,0,0,1,0,.49,2.8,2.8,0,0,1,0,.41,2.47,2.47,0,0,1-.05.54,2.26,2.26,0,0,1,0,.52,2.53,2.53,0,0,1,0,.38,2.28,2.28,0,0,1,0,.45,2.89,2.89,0,0,1,0,.29,1.27,1.27,0,0,1,0,.28,2,2,0,0,1-.09.49s0,.05,0,.08a3.18,3.18,0,0,1-.06.43,3.4,3.4,0,0,1-.07.34v0l-.06.25a2.26,2.26,0,0,1-.22.52,2.21,2.21,0,0,1-.09.62.49.49,0,0,1,0,.11s0,0,0,.05a2.25,2.25,0,0,1-.08.24,3.65,3.65,0,0,1-.14.35s0,.05,0,.08a2,2,0,0,1-.2.47h0a1.33,1.33,0,0,1-.11.3,1,1,0,0,1,0,.1,1.17,1.17,0,0,1-.05.11,2,2,0,0,1-.2.38,1.8,1.8,0,0,1-.25.5,2.1,2.1,0,0,1-.22.42,1.92,1.92,0,0,1-.25.38,1.8,1.8,0,0,1-.32.49l-.1.17-.16.21a2,2,0,0,1-.36.4,1.82,1.82,0,0,1-.48.61,1.94,1.94,0,0,1-.58.5,2,2,0,0,1-.42.44A1.89,1.89,0,0,1,22,23a1.73,1.73,0,0,1-.41.3l-.23.13a2.05,2.05,0,0,1-2.08.53,2.19,2.19,0,0,1-1.18-1.06,1.91,1.91,0,0,1-.24-.38,1.91,1.91,0,0,1-.21-.43,2.39,2.39,0,0,1-.28-.49l-.07-.15a2.42,2.42,0,0,1-.2-.59,2.3,2.3,0,0,1-.31-.76,2.2,2.2,0,0,1-.2-.72,2.23,2.23,0,0,1-.22-.66.24.24,0,0,0,0-.08,1.59,1.59,0,0,1-.06-.3,2.9,2.9,0,0,1-.12-.6,3.12,3.12,0,0,1-.09-.44,2.33,2.33,0,0,1-.06-.53,1.81,1.81,0,0,1-.07-.52,3.07,3.07,0,0,1-.07-.53v0s0-.05,0-.08,0-.23,0-.34a2.59,2.59,0,0,1,0-.62c0-.13,0-.26,0-.38s0-.14,0-.21a2.49,2.49,0,0,1,.09-.81,2.28,2.28,0,0,1,0-.94,1.64,1.64,0,0,1,0-.23,2,2,0,0,1,.06-.48,2.92,2.92,0,0,1,0-.51,2.36,2.36,0,0,1,0-.28,2.58,2.58,0,0,1,0-.29,2.44,2.44,0,0,1,.09-.47,1.77,1.77,0,0,1,.05-.32,1.94,1.94,0,0,1,.07-.33,1.18,1.18,0,0,1,.07-.2,2,2,0,0,1,.08-.54c0-.07,0-.14.05-.22l.05-.15c0-.1,0-.21.07-.31l.06-.17a.94.94,0,0,1,0-.16.65.65,0,0,1,0-.13l0-.13s0-.1.05-.16l0-.08a2.6,2.6,0,0,1,.13-.36l0-.12L17,6.45l0-.09a2,2,0,0,1,.17-.4,2.22,2.22,0,0,1,.2-.47,1.57,1.57,0,0,1,.18-.42,2.31,2.31,0,0,1,.18-.35,2.41,2.41,0,0,1,.37-.65,2,2,0,0,1,.34-.58,1.37,1.37,0,0,1,.13-.2A2,2,0,0,1,19,2.84a1.76,1.76,0,0,1,.14-.23,1.87,1.87,0,0,1,.66-.69,2.67,2.67,0,0,1,.38-.44A1.71,1.71,0,0,1,20.71,1a1.84,1.84,0,0,1,.22-.17L21,.8a1.58,1.58,0,0,1,.24-.15A2,2,0,0,1,23.34.09,2.21,2.21,0,0,1,24.18.63Z"/><path class="cls-1" d="M45.46,2.75a1.83,1.83,0,0,1,.21.26,1.8,1.8,0,0,1,.37.5l.1.1a2.85,2.85,0,0,1,.25.33,2.22,2.22,0,0,1,.25.42h0l.09.11a2.59,2.59,0,0,1,.33.61,2.77,2.77,0,0,1,.26.48,2.5,2.5,0,0,1,.19.52,2.16,2.16,0,0,1,.22.49,2,2,0,0,1,.14.41,1.24,1.24,0,0,1,0,.16,2.6,2.6,0,0,1,.16.47s0,.06,0,.1a2.1,2.1,0,0,1,.15.61,2.42,2.42,0,0,1,.1.45,3.58,3.58,0,0,1,.09.45,2.89,2.89,0,0,1,0,.29,1,1,0,0,1,0,.24,2.6,2.6,0,0,1,0,.39l0,.36a2,2,0,0,1,0,.42,2,2,0,0,1,0,.25v.15a2.08,2.08,0,0,1,0,.43,1.86,1.86,0,0,1,0,.41,2.48,2.48,0,0,1-.08.66,2.51,2.51,0,0,1,0,.55s0,.08,0,.12a2.27,2.27,0,0,1,0,.35,2.7,2.7,0,0,1,0,.48c0,.06,0,.13,0,.19a2.7,2.7,0,0,1-.08.41,2,2,0,0,1-.08.43l-.08.24a2,2,0,0,1-.1.53.29.29,0,0,1,0,.09c0,.07,0,.14,0,.21a2,2,0,0,1-.1.26c0,.07,0,.13,0,.19l-.09.25,0,.11a3.84,3.84,0,0,1-.14.36c0,.09-.06.18-.1.27a.3.3,0,0,0,0,.1c0,.1-.09.2-.14.3a2.3,2.3,0,0,1-.37.67,2.05,2.05,0,0,1-.33.67,3.07,3.07,0,0,1-.2.36,2.22,2.22,0,0,1-.39.47,2.29,2.29,0,0,1-.42.64,2.3,2.3,0,0,1-.33.37,1.64,1.64,0,0,1-.3.29,2,2,0,0,1-.31.34,2.6,2.6,0,0,1-.36.3.93.93,0,0,1-.14.14,1.72,1.72,0,0,1-.67.51,1.84,1.84,0,0,1-.6.37l-.16.1a1.87,1.87,0,0,1-.43.19l-.22.12a2.06,2.06,0,0,1-2,.43,2.21,2.21,0,0,1-1.07-.87,2.37,2.37,0,0,1-.27-.37,3.08,3.08,0,0,1-.32-.48l-.06-.13a2.23,2.23,0,0,1-.33-.58,2.27,2.27,0,0,1-.27-.48,1.92,1.92,0,0,1-.22-.51,2.28,2.28,0,0,1-.2-.45,2.24,2.24,0,0,1-.14-.46,2.11,2.11,0,0,1-.17-.44.64.64,0,0,1,0-.07A2.24,2.24,0,0,1,37,19a2.19,2.19,0,0,1-.14-.77,2.54,2.54,0,0,1-.19-.65,3.11,3.11,0,0,1,0-.32,2.52,2.52,0,0,1-.08-.83,2.5,2.5,0,0,1-.1-.82v0c0-.11,0-.22,0-.34s0-.2,0-.3a4,4,0,0,1,0-.49,2.26,2.26,0,0,1,0-.45,2.63,2.63,0,0,1,0-.56,3.11,3.11,0,0,1,.09-.6,2.44,2.44,0,0,1,.06-.71c0-.08,0-.15,0-.22s0-.21.06-.32a4.3,4.3,0,0,1,.09-.47h0c0-.09,0-.18,0-.26l0-.11a2,2,0,0,1,0-.24,3.84,3.84,0,0,1,.14-.36,3,3,0,0,1,.1-.52,1,1,0,0,1,0-.16V9.42c0-.1.07-.2.11-.3s0-.11,0-.16l.09-.25,0-.07,0-.09a1.54,1.54,0,0,1,.08-.19A2.28,2.28,0,0,1,37.65,8a1.55,1.55,0,0,1,.14-.32,2.21,2.21,0,0,1,.12-.27,3.13,3.13,0,0,1,.15-.32l.11-.19a2.28,2.28,0,0,1,.17-.3,2,2,0,0,1,.33-.55,2.08,2.08,0,0,1,.24-.34A1.74,1.74,0,0,1,39,5.53a2,2,0,0,1,.23-.28,1.61,1.61,0,0,1,.21-.3c.06-.06.12-.13.18-.18A2,2,0,0,1,40,4.44l.08-.1a1.77,1.77,0,0,1,.63-.62,1.8,1.8,0,0,1,.65-.46l.16-.13a1.86,1.86,0,0,1,.6-.33,2.19,2.19,0,0,1,.55-.28l.07,0a1.93,1.93,0,0,1,.39-.15l.08,0a2,2,0,0,1,1.73,0,1.64,1.64,0,0,1,.26.16A3.05,3.05,0,0,1,45.46,2.75Z"/><path class="cls-1" d="M59.74,22.27a2,2,0,0,1,.24.31,1.61,1.61,0,0,1,.21.3,1.87,1.87,0,0,1,.16.28,2.3,2.3,0,0,1,.35.58,2.2,2.2,0,0,1,.17.25,2.75,2.75,0,0,1,.17.29,1.79,1.79,0,0,1,.2.39,1.65,1.65,0,0,1,.22.36,2.65,2.65,0,0,1,.27.53,2.67,2.67,0,0,1,.34.7,2.64,2.64,0,0,1,.15.29,2.35,2.35,0,0,1,.19.43l.06.21a2.57,2.57,0,0,1,.23.6,1.31,1.31,0,0,1,.09.28,1.89,1.89,0,0,1,.13.48,2,2,0,0,1,.13.55,2.16,2.16,0,0,1,.1.44,2.65,2.65,0,0,1,.06.69,2.6,2.6,0,0,1,.1.68,2.54,2.54,0,0,1,0,.39,2.26,2.26,0,0,1,0,.52,2.71,2.71,0,0,1,0,.29c0,.1,0,.2,0,.29a3,3,0,0,1-.08.59,2.2,2.2,0,0,1,0,.44,2.58,2.58,0,0,1-.06.37,2.41,2.41,0,0,1-.08.44,2.26,2.26,0,0,1-.15.39,2.41,2.41,0,0,1-.09.75,1.16,1.16,0,0,1,0,.18s0,0,0,.06a.75.75,0,0,1,0,.16,2.31,2.31,0,0,1-.1.28c0,.06,0,.12,0,.19a2.13,2.13,0,0,1-.14.35l0,.12c0,.08,0,.15-.07.22l0,.11s0,.08,0,.12a2.26,2.26,0,0,1-.17.35,2,2,0,0,1-.23.52,2.15,2.15,0,0,1-.22.46,2.77,2.77,0,0,1-.22.37,2.25,2.25,0,0,1-.31.51,1,1,0,0,1-.14.22l-.14.21a2.91,2.91,0,0,1-.33.37,2,2,0,0,1-.51.67,1.81,1.81,0,0,1-.58.49,1.86,1.86,0,0,1-.41.43,2,2,0,0,1-.7.46,2,2,0,0,1-.78.46,2.1,2.1,0,0,1-1,.34,1.93,1.93,0,0,1-1.7-.18,2,2,0,0,1-.75-.79,2.23,2.23,0,0,1-.46-.8,2.69,2.69,0,0,1-.35-.55l-.07-.16a2.25,2.25,0,0,1-.23-.61,2.42,2.42,0,0,1-.33-.8,2.27,2.27,0,0,1-.19-.71,2.46,2.46,0,0,1-.21-.63.29.29,0,0,1,0-.09,1.77,1.77,0,0,1-.08-.4,2.28,2.28,0,0,1-.09-.51,2.29,2.29,0,0,1-.11-.58,2.6,2.6,0,0,1,0-.4,2.14,2.14,0,0,1-.06-.62,2,2,0,0,1,0-.43V34.7a.13.13,0,0,0,0-.06,3.53,3.53,0,0,1,0-.46,3,3,0,0,1,0-.52,3.53,3.53,0,0,1,0-.46,1.48,1.48,0,0,1,0-.21,2.88,2.88,0,0,1,.09-.71v0a2.48,2.48,0,0,1,0-.86,2.45,2.45,0,0,1,0-.27,2.54,2.54,0,0,1,.07-.47,2.19,2.19,0,0,1,0-.51c0-.09,0-.18,0-.28a2.63,2.63,0,0,1,.06-.39,2,2,0,0,1,.07-.35,2.66,2.66,0,0,1,.07-.39,2.27,2.27,0,0,1,.06-.25,2.47,2.47,0,0,1,.1-.29,3.89,3.89,0,0,1,.09-.47l0-.15v0a2.65,2.65,0,0,1,.11-.3.94.94,0,0,1,0-.16,1.51,1.51,0,0,1,.14-.35,1.45,1.45,0,0,1,.11-.29,2.54,2.54,0,0,1,.16-.38c.06-.13.13-.26.2-.38a2.14,2.14,0,0,1,.2-.4l.12-.18c0-.07.1-.15.15-.21a2.11,2.11,0,0,1,.41-.58,2.11,2.11,0,0,1,.26-.35l.11-.12a1.93,1.93,0,0,1,.35-.35,3.44,3.44,0,0,1,.27-.27l.07-.07a1.82,1.82,0,0,1,.58-.43,1.92,1.92,0,0,1,.66-.36,1.9,1.9,0,0,1,.57-.28h0a2,2,0,0,1,1.9-.32A2.34,2.34,0,0,1,59.74,22.27Z"/><path class="cls-1" d="M37.62,31.51a2.75,2.75,0,0,1,.22.26l.1.14a3,3,0,0,1,.36.35,2.52,2.52,0,0,1,.3.35l.08.12a2.59,2.59,0,0,1,.48.51l.05.07a2,2,0,0,1,.22.27,2.4,2.4,0,0,1,.42,1.68,2.89,2.89,0,0,1,.65.61c.08.1.14.21.21.31l.25.22a2.38,2.38,0,0,1,.7,1.36,1.63,1.63,0,0,1,.22.17,2.83,2.83,0,0,1,.78.76,2.94,2.94,0,0,1,.43,1,3.5,3.5,0,0,1,1.19,1,2.59,2.59,0,0,1,.34.66,3,3,0,0,1,.48.64,4.12,4.12,0,0,1,2,1.45,2.87,2.87,0,0,1,.45,2.26,3.76,3.76,0,0,1,.35.34,3.7,3.7,0,0,1,1.21,1.1,2.83,2.83,0,0,1,.41,2.38l.13.18a3,3,0,0,1,.46,2.21,3.24,3.24,0,0,1-.13,1,2.59,2.59,0,0,1-.5,1,2.54,2.54,0,0,1,.29.36,3.08,3.08,0,0,1,.44,2.69l-.06.18a3,3,0,0,1-.12.83L50,58c0,.1,0,.2.07.3a4.36,4.36,0,0,1,1.15,1.11,3.18,3.18,0,0,1,.43,2.68,2.69,2.69,0,0,1-1.47,1.71,3.27,3.27,0,0,1-.47.18,2.68,2.68,0,0,1-.3.28,4.19,4.19,0,0,1,1.1,1.08A3.15,3.15,0,0,1,51,68a2.75,2.75,0,0,1-1,1.44,3.09,3.09,0,0,1-.57.44,3.29,3.29,0,0,1-.68.47l-.27.11a2.45,2.45,0,0,1-.08.93,2.22,2.22,0,0,1-1.06,1.32,2.16,2.16,0,0,1-.51.34l-.13.06a2.24,2.24,0,0,1-.56.39l-.29.11a2,2,0,0,1-.39.25l-.29.13-.06,0a2.35,2.35,0,0,1-.44.17l-.12.06a2.14,2.14,0,0,1-.39.16,2.54,2.54,0,0,1-.47.14,2.38,2.38,0,0,1-.7.16,2,2,0,0,1-1.32.1,2.13,2.13,0,0,1-1.91-.48,2.58,2.58,0,0,1-.29-.32,2.33,2.33,0,0,1-.41-.37l-.12-.15a8.65,8.65,0,0,1-.63-.62,1.67,1.67,0,0,1-.12-.16,2.83,2.83,0,0,1-.37-.4l-.07-.09-.27-.31a2.39,2.39,0,0,1-.13-.21,2.48,2.48,0,0,1-.5-.52L36.7,71l-.11-.2a2.76,2.76,0,0,1-.46-.5l-.08-.12a2,2,0,0,1-.2-.21c-1.23-.5-2.63-1.09-4.21-1.77L31.28,68l-2.23-.17c-4-.14-6.76-.41-8.38-1.52a5.59,5.59,0,0,1-2.5-1.5,3.75,3.75,0,0,1-.74-.75,3.13,3.13,0,0,1-.37-.7,4.25,4.25,0,0,1-1.43-1.27,3.14,3.14,0,0,1-.29-.54A3.21,3.21,0,0,1,15,59c0-.05,0-.09,0-.14a3.19,3.19,0,0,1,.12-.6l.06-.19a3.94,3.94,0,0,1-.71-.77,3.16,3.16,0,0,1-.45-2.75,2.69,2.69,0,0,1,1.07-1.49,2.75,2.75,0,0,1,.73-.83,3.08,3.08,0,0,1-.27-2.36,2.51,2.51,0,0,1,.57-1,.61.61,0,0,1,0-.11,2.65,2.65,0,0,1,1.12-1.51,3,3,0,0,1,.11-1,2.69,2.69,0,0,1,1.18-1.55,3,3,0,0,1,0-1.69,2.44,2.44,0,0,1,.28-.64,2.61,2.61,0,0,1,1.34-1.59,2.85,2.85,0,0,1,.74-.53,3.45,3.45,0,0,1,1.49-.3,2.44,2.44,0,0,1,1.22-1.31h0a2.88,2.88,0,0,1,0-1.54A2.46,2.46,0,0,1,25,35.56l.18-.08a2.24,2.24,0,0,1,1.07-1.08,2.64,2.64,0,0,1,1.37-.28c0-.1,0-.2.05-.3a2.51,2.51,0,0,1-.09-1.65A2.14,2.14,0,0,1,28.43,31a2.08,2.08,0,0,1,.43-.3,1.85,1.85,0,0,1,.32-.25,2.2,2.2,0,0,1,.32-.21h0a2.32,2.32,0,0,1,.44-.31l.1,0a1.37,1.37,0,0,1,.29-.2l.13-.09.15-.09.18-.09.22-.16a2,2,0,0,1,.38-.21h0a1.64,1.64,0,0,1,.43-.26,2,2,0,0,1,.51-.26,2,2,0,0,1,1.82-.07,2.28,2.28,0,0,1,.66.51,3,3,0,0,1,.3.23,1.93,1.93,0,0,1,.27.3,2,2,0,0,1,.38.28L36,30l.21.23a.76.76,0,0,1,.11.14,2,2,0,0,1,.37.3,2.53,2.53,0,0,1,.36.37,1.14,1.14,0,0,1,.2.23A2.88,2.88,0,0,1,37.62,31.51Z"/><path class="cls-1" d="M27.81,63.64a2.55,2.55,0,0,1,.46,2.66,2.21,2.21,0,0,1-1.14,1.38,2.36,2.36,0,0,1-.87.25A2.85,2.85,0,0,1,26.17,69a2.3,2.3,0,0,1-.49.86,1.73,1.73,0,0,1-.14.31A2.49,2.49,0,0,1,25.72,72a2.12,2.12,0,0,1-.78,1.11.83.83,0,0,1,0,.15,2,2,0,0,1-.52.9,2.32,2.32,0,0,1-.4.48,2.36,2.36,0,0,1-.32.44,2.52,2.52,0,0,1-.49.43,2.35,2.35,0,0,1-.66.6,2.23,2.23,0,0,1-.5.37h0a2.11,2.11,0,0,1-.31.21l-.05,0a.76.76,0,0,1-.18.09,1.88,1.88,0,0,1-.59.26,2,2,0,0,1-1.46.14l-.13,0a2.24,2.24,0,0,1-2.07-.55l-.13-.14a2.67,2.67,0,0,1-.36-.32l-.08-.1a2.5,2.5,0,0,1-.41-.39l-.15-.2,0,0a2.56,2.56,0,0,1-.31-.34,2.75,2.75,0,0,1-.19-.28,2.15,2.15,0,0,1-.61-.85,2.69,2.69,0,0,1-.36-.39,1.76,1.76,0,0,1-.14-.23,2,2,0,0,1-.28-.55L14,72.62a2.48,2.48,0,0,1-.32-.6,2.59,2.59,0,0,1-.31-.65,2.2,2.2,0,0,1-.65-1.47,2.46,2.46,0,0,1-.08-1.61,1.71,1.71,0,0,1,.09-.27,2.09,2.09,0,0,1-.14-.17,2.57,2.57,0,0,1-.43-2.33,2.16,2.16,0,0,1,.71-1.07,2.56,2.56,0,0,1,.1-.86,2.19,2.19,0,0,1,1.15-1.36,2.61,2.61,0,0,1,1.6-.18,2.62,2.62,0,0,1,.54-.38c1.15-.58,2.53-.19,5.33.83a5.35,5.35,0,0,1,3.41.73,2.41,2.41,0,0,1,2.59.2A1.51,1.51,0,0,1,27.81,63.64Z"/></g></g></g></svg>