<svg xmlns="http://www.w3.org/2000/svg" viewBox="0 0 67.04 70.05"><defs><style>.cls-1{fill:#1e4553;}</style></defs><g id="Layer_2" data-name="Layer 2"><g id="Paws"><g id="paths"><path class="cls-1" d="M15.36,29.94a2,2,0,0,1-.1.61,1.36,1.36,0,0,1,0,.2,2.29,2.29,0,0,1-.19.63,2.51,2.51,0,0,1,0,.82,3,3,0,0,1-.1.43s0,.06,0,.09a2.45,2.45,0,0,1-.9,1.57,3,3,0,0,1-.7.56,2.62,2.62,0,0,1-1.36,2,1.84,1.84,0,0,1-.38.17,2.08,2.08,0,0,1-.17.72,2.63,2.63,0,0,1,.06.5,2.51,2.51,0,0,1-1.42,2.3,2.55,2.55,0,0,1-.76.27,2.44,2.44,0,0,1-1,1.05,2.15,2.15,0,0,1-.85.29,2.69,2.69,0,0,1-.4,0,2.41,2.41,0,0,1-.6,0,2.36,2.36,0,0,1-.46,0l-.3-.06a1.91,1.91,0,0,1-.53-.1h0l-.33-.08-.22-.09-.23-.09a2.45,2.45,0,0,1-.72-.41,1.94,1.94,0,0,1-.91-.82,2,2,0,0,1-.25-.78l-.12-.22c-.08-.07-.14-.13-.21-.18-.9-.81-1.9-1.72-1.84-3a2.46,2.46,0,0,1-.16-.76,3.86,3.86,0,0,1-.06-.49,3,3,0,0,1,0-.43,2.67,2.67,0,0,1,0-.8,2.43,2.43,0,0,1,0-.54,1.09,1.09,0,0,1,0-.18,2.81,2.81,0,0,1,0-.71c0-.06,0-.12,0-.18a2,2,0,0,1,0-.49,1.5,1.5,0,0,1,0-.22,2.48,2.48,0,0,1,1.21-1.74,2.3,2.3,0,0,1,.91-.27A3.57,3.57,0,0,1,3,28.93a2.19,2.19,0,0,1,1-.29,2.45,2.45,0,0,1,.27-.83A2.74,2.74,0,0,1,3,25.62H3a2.55,2.55,0,0,1,1.42-2.24,2.21,2.21,0,0,1,1.14-.27l.2-.13.3-.14a2.42,2.42,0,0,1,.85-.8,2.12,2.12,0,0,1,1.43-.27,2.22,2.22,0,0,1,1.35,0,2.27,2.27,0,0,1,.77.08,1.34,1.34,0,0,1,.3.12L11,22a2.25,2.25,0,0,1,.59.26l.1,0a2,2,0,0,1,.79.43,1.93,1.93,0,0,1,.67.69,2.14,2.14,0,0,1,.2.47c.06.12.12.24.19.36a3.25,3.25,0,0,1,1.53,2.45,2.5,2.5,0,0,1,.06.78,2.42,2.42,0,0,1,.09,1s0,.09,0,.14a2.62,2.62,0,0,1,0,.69c0,.06,0,.11,0,.17A2.37,2.37,0,0,1,15.36,29.94Z"/><path class="cls-1" d="M29.22,10.31a2.14,2.14,0,0,1-.11.68.36.36,0,0,1,0,.11,2.13,2.13,0,0,1-.23.74,2.44,2.44,0,0,1,0,.6,2.26,2.26,0,0,1-.16.58,2.53,2.53,0,0,1-1.21,1.68l-.1.05A2.7,2.7,0,0,1,27,15c-.1.06-.21.1-.31.15a2.78,2.78,0,0,1-1.25,1.47,2.18,2.18,0,0,1-.78.26,1.6,1.6,0,0,1-.1.23c0,.06,0,.12,0,.18a2.43,2.43,0,0,1-1.42,2.37,2.1,2.1,0,0,1-1,.29,2.5,2.5,0,0,1-.73.64,2.24,2.24,0,0,1-1.21.29H20a1.81,1.81,0,0,1-.4,0,2.39,2.39,0,0,1-.6-.05,2.32,2.32,0,0,1-.38-.06l-.23-.06-.09,0a2,2,0,0,1-.33-.08,1.84,1.84,0,0,1-.25-.09l-.16-.05a1.79,1.79,0,0,1-.32-.13L17,20.14a2.21,2.21,0,0,1-.61-.37,2,2,0,0,1-.92-.83,1.91,1.91,0,0,1-.25-.74l-.07-.05c-.8-.66-1.81-1.49-1.7-2.83h0a2.76,2.76,0,0,1-.1-.75,2.26,2.26,0,0,1,0-.45,1.71,1.71,0,0,1,0-.32,2.66,2.66,0,0,1,0-.69s0-.06,0-.09a2.26,2.26,0,0,1,0-.45,1.49,1.49,0,0,1,0-.21s0,0,0-.08,0-.27,0-.4a2.82,2.82,0,0,1,.07-.31,1.66,1.66,0,0,1,0-.32c0-.08,0-.15,0-.23l0-.1c0-.05,0-.09,0-.14A2.48,2.48,0,0,1,14.8,9a2.15,2.15,0,0,1,1.63-.19l.1-.06a2.24,2.24,0,0,1,1.21-.29A2.63,2.63,0,0,1,18,7.93a2.62,2.62,0,0,1-1.18-2.08A2.52,2.52,0,0,1,18.2,3.58a2.28,2.28,0,0,1,1.29-.26l.09-.06A2.2,2.2,0,0,1,20,3.09a2.51,2.51,0,0,1,.8-.72,2.13,2.13,0,0,1,1.46-.26,2.24,2.24,0,0,1,1.33,0h0a2,2,0,0,1,.76.09,1.42,1.42,0,0,1,.29.1,1.5,1.5,0,0,1,.29.06,2,2,0,0,1,.54.23l.09,0a2.19,2.19,0,0,1,.8.42,2,2,0,0,1,.88.81,2,2,0,0,1,.24.68,3,3,0,0,1,1.6,2.64,2.17,2.17,0,0,1,.07.89h0a2.56,2.56,0,0,1,.07,1,1.62,1.62,0,0,1,0,.19,2.35,2.35,0,0,1,0,.65v0A2.41,2.41,0,0,1,29.22,10.31Z"/><path class="cls-1" d="M50,7.63a2.08,2.08,0,0,1-.11.62,3.25,3.25,0,0,1,0,.44,1.8,1.8,0,0,1-.1.4,2.64,2.64,0,0,1,0,.93,1.33,1.33,0,0,1-.06.3,1.24,1.24,0,0,1,0,.27,2.42,2.42,0,0,1-.61,1.3,2.71,2.71,0,0,1-.86.82.49.49,0,0,1,0,.12A2.61,2.61,0,0,1,46.8,14.9a1.58,1.58,0,0,1-.35.16,2.28,2.28,0,0,1-.18.79,3,3,0,0,1,.06.43,2.48,2.48,0,0,1-1.42,2.36,2.7,2.7,0,0,1-.53.22,2.53,2.53,0,0,1-1,1.05,1.87,1.87,0,0,1-.63.24,2.13,2.13,0,0,1-.42.1l-.31,0a2.14,2.14,0,0,1-.67,0h-.22a2.09,2.09,0,0,1-.43,0,2.52,2.52,0,0,1-.54-.08,1.82,1.82,0,0,1-.45-.1l-.07,0-.08,0-.12,0h0a2.45,2.45,0,0,1-.69-.33,2,2,0,0,1-1-.88,2.08,2.08,0,0,1-.25-.75L37.33,18c-.8-.66-1.8-1.5-1.72-2.8a2.51,2.51,0,0,1-.15-.78,1.86,1.86,0,0,1-.06-.48,1.76,1.76,0,0,1,0-.4,2.72,2.72,0,0,1,0-.81,3.21,3.21,0,0,1,0-.54c0-.07,0-.14,0-.2a3.28,3.28,0,0,1,0-.7l0-.15a2.83,2.83,0,0,1,0-.5,1.5,1.5,0,0,1,0-.22,2.43,2.43,0,0,1,0-.38,2.49,2.49,0,0,1,1.21-1.76A2.22,2.22,0,0,1,37.7,8a3.23,3.23,0,0,1,.49-.34,2.23,2.23,0,0,1,.8-.27V7.31a2.51,2.51,0,0,1,.33-1.1A2.67,2.67,0,0,1,38,4a2.57,2.57,0,0,1,1.41-2.26,2.21,2.21,0,0,1,1-.27l.29-.2L41,1.18A2.53,2.53,0,0,1,41.9.34,2.15,2.15,0,0,1,43.26.07,2.38,2.38,0,0,1,44,0a2.45,2.45,0,0,1,.71.11l.2.08a1.85,1.85,0,0,1,.58.07A2.27,2.27,0,0,1,46,.48l.17.05a1.94,1.94,0,0,1,.76.42,1.88,1.88,0,0,1,.6.65,1.77,1.77,0,0,1,.15.31c.12.21.24.45.37.7a3.6,3.6,0,0,1,1.52,2.27,2.22,2.22,0,0,1,.08.9v.06a2.59,2.59,0,0,1,.14.93s0,.08,0,.12A1.94,1.94,0,0,1,50,7.63Z"/><path class="cls-1" d="M67,26.21a1.9,1.9,0,0,1-.12.67s0,.08,0,.12a2.68,2.68,0,0,1-.21.68,2.82,2.82,0,0,1,0,.71,2.49,2.49,0,0,1-.16.55,2.44,2.44,0,0,1-1.21,1.72l-.07,0a3.22,3.22,0,0,1-.36.24l-.28.14a2.73,2.73,0,0,1-1.26,1.51,2,2,0,0,1-.78.26,2.56,2.56,0,0,1-.11.24s0,.08,0,.12a2.42,2.42,0,0,1-1.42,2.42l-.29.14a2.38,2.38,0,0,1-.79.72,2.19,2.19,0,0,1-1,.29,2.11,2.11,0,0,1-.61.1l-.39,0-.29,0a2.26,2.26,0,0,1-.58,0,1.55,1.55,0,0,1-.31,0,1.77,1.77,0,0,1-.4-.08,1.86,1.86,0,0,1-.41-.08l-.15-.06a1,1,0,0,1-.25-.06l-.11,0h0a2.17,2.17,0,0,1-.35-.15,2,2,0,0,1-.58-.31,1.94,1.94,0,0,1-1-.87,1.74,1.74,0,0,1-.23-.61A3.1,3.1,0,0,1,51.68,32a.43.43,0,0,0,0,0,2.26,2.26,0,0,1-.11-.69,2.07,2.07,0,0,1,0-.5,1.5,1.5,0,0,1,0-.3,2.55,2.55,0,0,1,0-.73.2.2,0,0,1,0-.07,2,2,0,0,1,0-.42,2.64,2.64,0,0,1,0-.29v0a4.15,4.15,0,0,1,0-.49,2.21,2.21,0,0,1,0-.25,3.07,3.07,0,0,1,0-.42s0-.09,0-.13v-.1a1.24,1.24,0,0,1,0-.27,2.12,2.12,0,0,1,.13-.51c0-.12,0-.24,0-.36a2.48,2.48,0,0,1,1.22-1.76,2.19,2.19,0,0,1,2.4.18h0a2.64,2.64,0,0,1,.3-.87,2.63,2.63,0,0,1-1.23-2.13,2.5,2.5,0,0,1,1.41-2.26,2.21,2.21,0,0,1,1.16-.27l.19-.13.37-.17a2.59,2.59,0,0,1,.81-.73A2.15,2.15,0,0,1,60.13,18a2.25,2.25,0,0,1,1.26,0l.18.07a2.28,2.28,0,0,1,.63.09,2.31,2.31,0,0,1,.51.22l.1,0a2.11,2.11,0,0,1,.81.43h0c.94.31,1.36,1.09,1.82,2.17a3.25,3.25,0,0,1,1.37,2.29,2,2,0,0,1,0,.35,2.53,2.53,0,0,1,.12,1.1.5.5,0,0,0,0,.12,2.28,2.28,0,0,1,0,.74.57.57,0,0,1,0,.14A2.5,2.5,0,0,1,67,26.21Z"/><path class="cls-1" d="M51.12,40.33h0A2.25,2.25,0,0,1,50,42.27a2,2,0,0,1-2.74-.73,2.39,2.39,0,0,1-.13-.28,2.39,2.39,0,0,1-1.19-2h0a2.25,2.25,0,0,1,1.19-2,2,2,0,0,1,2.4.3,2.06,2.06,0,0,1,.57.46,1.93,1.93,0,0,1,1,1.41,2.09,2.09,0,0,1,0,.49A2.13,2.13,0,0,1,51.12,40.33Zm-3.18-1.52h0Z"/><path class="cls-1" d="M57.48,55.37a3.87,3.87,0,0,1,0,.48A2.94,2.94,0,0,1,56,58l-.1.05a.3.3,0,0,1,0,.1,4.81,4.81,0,0,1,.47,2.69,3.15,3.15,0,0,1-1.58,2.27,3.22,3.22,0,0,1-.46.21,3.16,3.16,0,0,1-1,.92,2.75,2.75,0,0,1-2.12.28,3.53,3.53,0,0,1-.54.13,3.28,3.28,0,0,1-1.35,1.46,2.68,2.68,0,0,1-2.2.21l-.19-.07-.21.12a2.81,2.81,0,0,1-2.25.26,2.76,2.76,0,0,1-1.07.09,2.55,2.55,0,0,1-1.57,0,4.59,4.59,0,0,1-2.25-2,5.64,5.64,0,0,1-2.17-2.08,2.43,2.43,0,0,1-2,.16,2.05,2.05,0,0,1-.38-.16,2.05,2.05,0,0,1-.64-.11l-.22-.08a2.28,2.28,0,0,1-.63-.09,3,3,0,0,1-.77,1,3,3,0,0,1-.67.8,2.65,2.65,0,0,1-1.29,1.75,2.27,2.27,0,0,1-1.23.32,2.45,2.45,0,0,1-.46,0,3.28,3.28,0,0,1-.8.67,2.27,2.27,0,0,1-1.22.29,2.7,2.7,0,0,1-1.43,2.12,2.31,2.31,0,0,1-1.92.19l-.08,0a2.3,2.3,0,0,1-.94-.07,2.89,2.89,0,0,1-.44-.18,2.35,2.35,0,0,1-.6.48,2.22,2.22,0,0,1-1.8.18l-.27-.11a1.49,1.49,0,0,1-.36-.17,2.3,2.3,0,0,1-.62-.41,2,2,0,0,1-.82-.77,2.21,2.21,0,0,1-.24-.68l-.42-.8-.26-.25c-1.06-1-2.08-2-2.09-3.3a3.32,3.32,0,0,1-.33-1,3.36,3.36,0,0,1-.19-.74,2.61,2.61,0,0,1,0-1.08,2.43,2.43,0,0,1,.79-1.45v-.17a2.41,2.41,0,0,1,.37-1.21,3.17,3.17,0,0,1-.72-2.23A2.73,2.73,0,0,1,16,53.47a2.48,2.48,0,0,1,.44-.2,3.39,3.39,0,0,1,0-.78,2.46,2.46,0,0,1,.09-.39,4.11,4.11,0,0,1-1-3A2.81,2.81,0,0,1,16.94,47a2.26,2.26,0,0,1,.81-.29,2.74,2.74,0,0,1,.43-.3,2.27,2.27,0,0,1,.86-.3,2.68,2.68,0,0,1,1.27-.91,3.76,3.76,0,0,1,.2-.46,1,1,0,0,1,0-.14,4.5,4.5,0,0,1-.2-.76,3.71,3.71,0,0,1-.45-2.16,2.77,2.77,0,0,1,.68-1.48,2.72,2.72,0,0,1,1.19-1.36,2.15,2.15,0,0,1,.63-.26,1.86,1.86,0,0,1,0-.34,3,3,0,0,1,.37-1.07,3.59,3.59,0,0,1,.05-.74,3.12,3.12,0,0,1,1.53-2.19,2.6,2.6,0,0,1,.34-.16,3,3,0,0,1,.9-.86,3.22,3.22,0,0,1,1.16-1.16,2.85,2.85,0,0,1,2.34-.23,3.37,3.37,0,0,1,.58-.55,3.28,3.28,0,0,1,1.56-2.11A2.86,2.86,0,0,1,33.66,29a3,3,0,0,1,.61.28,2.86,2.86,0,0,1,1.15.15,3.31,3.31,0,0,1,.82.41,2.79,2.79,0,0,1,1.76,0,5.65,5.65,0,0,1,2.67,2.4A5.57,5.57,0,0,1,42.6,34l.07,0a2.44,2.44,0,0,1,2-.19c1.67.55,2.84,2.71,5.18,8.08,2.08,2.16,3.48,3.8,3.87,5.35,1.57,2,2.44,3.5,2.44,4.86v0A5.7,5.7,0,0,1,57.48,55.37Z"/></g></g></g></svg>