<svg xmlns="http://www.w3.org/2000/svg" viewBox="0 0 63.7 75.79"><defs><style>.cls-1{fill:#1e4553;}</style></defs><g id="Layer_2" data-name="Layer 2"><g id="Paws"><g id="paths"><path class="cls-1" d="M15.18,37.47a2.76,2.76,0,0,1,.06.4v0a2,2,0,0,1,.12.6,2.42,2.42,0,0,1-.13,1,2.5,2.5,0,0,1-1,2.49,2.42,2.42,0,0,1-.36.27,3.16,3.16,0,0,1,.68,1.64,2.55,2.55,0,0,1-.37,1.62,2.8,2.8,0,0,1-.77,1.36,3,3,0,0,1,.07.32,2.66,2.66,0,0,1-.88,2.35,2.3,2.3,0,0,1-1,.56,2.75,2.75,0,0,1-.44.53,2.15,2.15,0,0,1-1.67.57H9.43A2.17,2.17,0,0,1,8,51.63a2.6,2.6,0,0,1-.39-.05,2.18,2.18,0,0,1-.53-.09H6.73A2.23,2.23,0,0,1,6,51.32,2.37,2.37,0,0,1,5.14,51a2,2,0,0,1-.69-.48,1.78,1.78,0,0,1-.28-.38c-.16-.18-.33-.37-.51-.59-1-.52-2.08-1.12-2.39-2.28A2.19,2.19,0,0,1,1,46.58a2.65,2.65,0,0,1-.28-.93v0a2.3,2.3,0,0,1-.2-.79s0-.05,0-.08A2.61,2.61,0,0,1,.33,44a3.09,3.09,0,0,1,0-.43c0-.13-.06-.26-.08-.41a2.51,2.51,0,0,1,.48-1.77A2.56,2.56,0,0,1,0,40a2.61,2.61,0,0,1,.87-2.4,2.25,2.25,0,0,1,.3-.24,3,3,0,0,1-.3-1,2.62,2.62,0,0,1,.85-2.2,2.23,2.23,0,0,1,1.06-.56,2.78,2.78,0,0,1,.57-.73,2.17,2.17,0,0,1,1.08-.56,2.54,2.54,0,0,1,.79-1.72A2.27,2.27,0,0,1,6.85,30a2.17,2.17,0,0,1,.51,0l.28,0h.14a2.18,2.18,0,0,1,.83.22c1.05.24,1.83,1.21,3.06,2.84,1.5,1,2.79,1.81,3.1,3.11h0a1.46,1.46,0,0,1,.05.2,2.44,2.44,0,0,1,.22.66A3.45,3.45,0,0,1,15.18,37.47Z"/><path class="cls-1" d="M23.35,13.61l.06.37v.13a2.21,2.21,0,0,1,.09.46v0a3,3,0,0,1,.09.43l0,.24v0a2.3,2.3,0,0,1,0,.26,3.38,3.38,0,0,1,0,.45,1.75,1.75,0,0,1,0,.33,1.15,1.15,0,0,1,0,.19.49.49,0,0,1,0,.12,2.47,2.47,0,0,1-.78,2,2,2,0,0,1-.7.45,1.86,1.86,0,0,1,.09.48,2.5,2.5,0,0,1-.45,1.74,2.81,2.81,0,0,1-.75,1.22,1.72,1.72,0,0,1,.05.26,2.7,2.7,0,0,1-.87,2.35,2.29,2.29,0,0,1-.86.51,2.77,2.77,0,0,1-.5.64,2.09,2.09,0,0,1-.49.35,2.24,2.24,0,0,1-1.37.56,2.33,2.33,0,0,1-1.17.25h0a2.27,2.27,0,0,1-.58,0l-.16,0h-.38a2.36,2.36,0,0,1-.45-.08,1.89,1.89,0,0,1-.76-.19,2,2,0,0,1-.93-.55,2.21,2.21,0,0,1-.34-.48l-.2-.23A3.51,3.51,0,0,1,10,23.86a1.87,1.87,0,0,1-.26-.67,2.23,2.23,0,0,1-.29-.77l0-.15a2.59,2.59,0,0,1-.28-.88,2.62,2.62,0,0,1-.34-1.09.66.66,0,0,1,0-.14,2.72,2.72,0,0,1-.22-.56,2.85,2.85,0,0,1-.26-1,2.43,2.43,0,0,1,.37-1.49,2.64,2.64,0,0,1-.86-1.54,2.6,2.6,0,0,1,.87-2.4,2,2,0,0,1,.47-.35l.06-.06a2.25,2.25,0,0,1-.06-.36,2.62,2.62,0,0,1,.84-2.2,2.16,2.16,0,0,1,1.67-.59,2.59,2.59,0,0,1,.58.12.3.3,0,0,0,.08-.08,2.68,2.68,0,0,1,.52-.36,2.72,2.72,0,0,1,.58-.82,2.23,2.23,0,0,1,1-.54,2.07,2.07,0,0,1,.49-.12,1.82,1.82,0,0,1,.4-.11.31.31,0,0,1,.13,0,1.18,1.18,0,0,1,.25,0l.19,0a1.88,1.88,0,0,1,.53-.07,2.33,2.33,0,0,1,.53,0h.37a1.07,1.07,0,0,1,.25,0h.14l.29,0c1.07.1,1.71.85,2.65,2.11A4.32,4.32,0,0,1,22.89,12l.06.24a2.36,2.36,0,0,1,.1.38,2.34,2.34,0,0,1,.2.65C23.29,13.4,23.32,13.5,23.35,13.61Z"/><path class="cls-1" d="M42.13,8.72a2.9,2.9,0,0,1,.06.41,2.48,2.48,0,0,1-.78,2,2,2,0,0,1-.37.28,3.17,3.17,0,0,1,.72,1.66,2.6,2.6,0,0,1-.17,1.24,2.63,2.63,0,0,1-.72,1.76,2.33,2.33,0,0,1,.2.71,2.62,2.62,0,0,1-.87,2.35,2.39,2.39,0,0,1-.83.51,2.7,2.7,0,0,1-.52.66,2.12,2.12,0,0,1-1.67.57h0a2.11,2.11,0,0,1-1.49.46,2.08,2.08,0,0,1-.36,0,1.83,1.83,0,0,1-.55-.08,1.82,1.82,0,0,1-.33,0,2.16,2.16,0,0,1-.72-.16,2.5,2.5,0,0,1-.84-.31,2,2,0,0,1-1-.86c-.17-.18-.34-.39-.53-.61-1-.54-2.11-1.14-2.41-2.32a2.58,2.58,0,0,1-.25-.69,2.81,2.81,0,0,1-.26-.88v0a2.49,2.49,0,0,1-.19-.77.38.38,0,0,1,0-.1,2.55,2.55,0,0,1-.18-.76,2.46,2.46,0,0,1,0-.47c0-.11-.05-.23-.07-.35a2.51,2.51,0,0,1,.48-1.77,2.58,2.58,0,0,1-.65-1.32,2.61,2.61,0,0,1,.87-2.41,2.69,2.69,0,0,1,.33-.26,2.86,2.86,0,0,1-.26-.92A2.61,2.61,0,0,1,29.63,4a2.13,2.13,0,0,1,1.22-.57,3.35,3.35,0,0,1,.4-.53A2.51,2.51,0,0,1,32,1.19a2.07,2.07,0,0,1,.58-.4,2.18,2.18,0,0,1,.47-.21A2.64,2.64,0,0,1,33.47.4l.1,0A2.77,2.77,0,0,1,34,.24l.14,0A2.07,2.07,0,0,1,34.67.1,2.63,2.63,0,0,1,35.06,0h.19a2.07,2.07,0,0,1,.43,0h.62A2,2,0,0,1,37,.12a2,2,0,0,1,.77.17,1.91,1.91,0,0,1,.92.29A1.93,1.93,0,0,1,40,1.66a2.25,2.25,0,0,1,.18.62,2.23,2.23,0,0,1,.19.55,1.62,1.62,0,0,1,0,.19,2.36,2.36,0,0,1,.19.62,2.34,2.34,0,0,1,.14.49,1.78,1.78,0,0,1,.09.33A2.56,2.56,0,0,1,41,5a2.79,2.79,0,0,1,.23.76,2.43,2.43,0,0,1,.17.54,3.8,3.8,0,0,1,.18.47c0,.11.07.23.1.34a2.31,2.31,0,0,1,.16.7v.09a2.5,2.5,0,0,1,.2.64C42.09,8.57,42.11,8.65,42.13,8.72Z"/><path class="cls-1" d="M63.37,21.28a3.91,3.91,0,0,1,.07.39,3,3,0,0,1,0,.6,2.79,2.79,0,0,1,.29,1,2.48,2.48,0,0,1-.78,2h0a2.93,2.93,0,0,1,0,.29,2.6,2.6,0,0,1-.19,1.27,2.63,2.63,0,0,1-.72,1.72,2.51,2.51,0,0,1,.19.69,2.64,2.64,0,0,1-.87,2.35,2.56,2.56,0,0,1-.69.45,2.6,2.6,0,0,1-.58.79,2.16,2.16,0,0,1-1.4.59,2.16,2.16,0,0,1-1.63.58H57a1.62,1.62,0,0,1-.58,0A2.47,2.47,0,0,1,56,34a6.51,6.51,0,0,1-1.33-.32,1.88,1.88,0,0,1-.85-.53,2.61,2.61,0,0,1-.31-.43l-.36-.41c-.89-.46-2-1-2.28-2.18a2.28,2.28,0,0,1-.24-.63,2.43,2.43,0,0,1-.34-.92,2.69,2.69,0,0,1-.31-.93,2.72,2.72,0,0,1-.36-1.15.57.57,0,0,1,0-.13,2.35,2.35,0,0,1-.28-.92,2.44,2.44,0,0,1,.37-1.63c0-.11-.05-.21-.07-.32A2.66,2.66,0,0,1,48.76,22a2.59,2.59,0,0,1,.87-2.39,2.21,2.21,0,0,1,.6-.41,2.34,2.34,0,0,1,0-.26A2.61,2.61,0,0,1,51,16.68a2.19,2.19,0,0,1,1.64-.58,2.5,2.5,0,0,1,.66-1,2.11,2.11,0,0,1,1.25-.58,2.32,2.32,0,0,1,.91-.33,2.42,2.42,0,0,1,.66-.06h.06a2,2,0,0,1,.6,0l.17,0h.13l.3.05a2.33,2.33,0,0,1,.74.26,2,2,0,0,1,.66.47l.15.17A15.13,15.13,0,0,1,60,16.3c1.17.68,2.27,1.32,2.58,2.48a1.79,1.79,0,0,1,.13.32,3.42,3.42,0,0,1,.13.34.14.14,0,0,0,0,.07,2.23,2.23,0,0,1,.18.74.25.25,0,0,1,0,.08,2.44,2.44,0,0,1,.23.69A2,2,0,0,1,63.37,21.28Z"/><path class="cls-1" d="M63.4,54a3.23,3.23,0,0,1,.08.53,2.52,2.52,0,0,1,0,.73A3.05,3.05,0,0,1,63,57.05c0,.11,0,.23,0,.34v.38c0,.08,0,.16,0,.23a3.17,3.17,0,0,1-1,2.54,2.75,2.75,0,0,1-.9.57.34.34,0,0,1,0,.1,3.14,3.14,0,0,1-1,2.5,2.7,2.7,0,0,1-2.11.72,3.29,3.29,0,0,1-1-.25l-.2.2a2.7,2.7,0,0,1-.95.59,2.91,2.91,0,0,1-.3.31,2.65,2.65,0,0,1-2,.71,4.32,4.32,0,0,1-2.2-1,3.75,3.75,0,0,1-.7.91,2.66,2.66,0,0,1-.66.45,4.48,4.48,0,0,1-.36.4,2.71,2.71,0,0,1-2.11.72,3.92,3.92,0,0,1-1.68-.61A2.65,2.65,0,0,1,44.6,67,4.6,4.6,0,0,1,42,65.67a1,1,0,0,1,0,.24,2.84,2.84,0,0,1-.9,2.32l0,0a3.19,3.19,0,0,1-.89,1.42,2.36,2.36,0,0,1-1.73.65,2.75,2.75,0,0,1-.8,1.33,2.2,2.2,0,0,1-.83.49,2,2,0,0,1-.56.37,2.92,2.92,0,0,1-.84,1.41,2.31,2.31,0,0,1-1.42.63,2.29,2.29,0,0,1-.21.23,2.19,2.19,0,0,1-1.69.58h0a2.24,2.24,0,0,1-1.47.43l-.17,0a1.81,1.81,0,0,1-.56,0,2.38,2.38,0,0,1-1-.09,2.23,2.23,0,0,1-.81-.23,2,2,0,0,1-.81-.52,2.42,2.42,0,0,1-.27-.36c-.19-.2-.38-.43-.58-.68-1-.54-2.11-1.15-2.44-2.3a2.32,2.32,0,0,1-.29-.73,2.44,2.44,0,0,1-.31-.93,2.57,2.57,0,0,1-.25-.91,2.68,2.68,0,0,1-.26-.94,1.31,1.31,0,0,1,0-.28,2.23,2.23,0,0,1-.16-.64,2.52,2.52,0,0,1,.4-1.67l0-.17a2.84,2.84,0,0,1-.94-1.7,2.57,2.57,0,0,1,.7-2.19A2.42,2.42,0,0,1,23,61a3.51,3.51,0,0,1-.88-2,2.7,2.7,0,0,1,.67-2,2.72,2.72,0,0,1,0-.3,2.77,2.77,0,0,1,.88-2.24,2.4,2.4,0,0,1,1.17-.58,3.24,3.24,0,0,1-.51-1.46,2.62,2.62,0,0,1,0-.56,4,4,0,0,1-1.14-2.35,2.77,2.77,0,0,1,.3-1.56v0a2.91,2.91,0,0,1,.67-2.13s0-.06,0-.1a3,3,0,0,1,1-2.43,2.71,2.71,0,0,1,1.7-.73s0-.08,0-.12A4,4,0,0,1,26.49,41a3.12,3.12,0,0,1,1-2.51,2.68,2.68,0,0,1,1-.59c.06-.14.12-.28.19-.42a4.66,4.66,0,0,1-.1-.68,3.09,3.09,0,0,1,1-2.45,2.76,2.76,0,0,1,1.29-.69,3.33,3.33,0,0,1,.88-1.36,2.74,2.74,0,0,1,2.17-.73,3.41,3.41,0,0,1,1.11.3l.18.07A2.84,2.84,0,0,1,37,31.51,5.61,5.61,0,0,1,40,33a9.17,9.17,0,0,1,.76.54,2.67,2.67,0,0,1,1.38-.22c1.3.12,2.65,1.13,4.51,3.28,1.19.19,2.36,1.19,4.17,3.38a2,2,0,0,1,1.56.63,2,2,0,0,1,.49.91h0c1.25.2,2.82.52,3.3,2a2.69,2.69,0,0,1,.1.89,3.69,3.69,0,0,1,2.5,2.4l0,.06a2.64,2.64,0,0,1,0,.95c1.67,1.1,2.83,2.21,3.06,3.62A5.71,5.71,0,0,1,63.4,54Z"/></g></g></g></svg>